<svg viewBox="0 0 1300 1300" xmlns="http://www.w3.org/2000/svg">
    <mask id="b" x="0" y="0" width="1300" height="1300">
        <path fill="url(#a)" d="M0 0h1300v1300H0z" />
    </mask>
    <path d="M0 0h1300v1300H0z" fill="none"/>
    <g style="transform-origin:center center" mask="url(#b)">
        <path stroke="#f0abfccc" stroke-width=".5" fill="none"
            d="m71.836 0 35.835 20.69v41.379l-35.835 20.69L36 62.069v-41.38ZM287.836 0l35.835 20.69v41.379l-35.835 20.69L252 62.069v-41.38ZM359.836 0l35.835 20.69v41.379l-35.835 20.69L324 62.069v-41.38ZM503.836 0l35.835 20.69v41.379l-35.835 20.69L468 62.069v-41.38ZM791.836 0l35.835 20.69v41.379l-35.835 20.69L756 62.069v-41.38ZM1007.836 0l35.835 20.69v41.379l-35.835 20.69L972 62.069v-41.38ZM1079.836 0l35.835 20.69v41.379l-35.835 20.69L1044 62.069v-41.38ZM35.836 62.069l35.835 20.69v41.379l-35.835 20.69L0 124.138v-41.38ZM179.836 62.069l35.835 20.69v41.379l-35.835 20.69L144 124.138v-41.38ZM395.836 62.069l35.835 20.69v41.379l-35.835 20.69L360 124.138v-41.38ZM683.836 62.069l35.835 20.69v41.379l-35.835 20.69L648 124.138v-41.38ZM827.836 62.069l35.835 20.69v41.379l-35.835 20.69L792 124.138v-41.38ZM1115.836 62.069l35.835 20.69v41.379l-35.835 20.69-35.836-20.69v-41.38ZM71.836 124.138l35.835 20.69v41.379l-35.835 20.69L36 186.207v-41.38ZM215.836 124.138l35.835 20.69v41.379l-35.835 20.69L180 186.207v-41.38ZM287.836 124.138l35.835 20.69v41.379l-35.835 20.69L252 186.207v-41.38ZM503.836 124.138l35.835 20.69v41.379l-35.835 20.69L468 186.207v-41.38ZM647.836 124.138l35.835 20.69v41.379l-35.835 20.69L612 186.207v-41.38ZM719.836 124.138l35.835 20.69v41.379l-35.835 20.69L684 186.207v-41.38ZM107.836 186.207l35.835 20.69v41.379l-35.835 20.69L72 248.276v-41.38ZM683.836 186.207l35.835 20.69v41.379l-35.835 20.69L648 248.276v-41.38ZM971.836 186.207l35.835 20.69v41.379l-35.835 20.69L936 248.276v-41.38ZM1043.836 186.207l35.835 20.69v41.379l-35.835 20.69-35.836-20.69v-41.38ZM143.836 248.276l35.835 20.69v41.379l-35.835 20.69L108 310.344v-41.38ZM503.836 248.276l35.835 20.69v41.379l-35.835 20.69L468 310.344v-41.38ZM647.836 248.276l35.835 20.69v41.379l-35.835 20.69L612 310.344v-41.38ZM791.836 248.276l35.835 20.69v41.379l-35.835 20.69L756 310.344v-41.38ZM935.836 248.276l35.835 20.69v41.379l-35.835 20.69L900 310.344v-41.38ZM107.836 310.345l35.835 20.69v41.379l-35.835 20.69L72 372.413v-41.38ZM179.836 310.345l35.835 20.69v41.379l-35.835 20.69L144 372.413v-41.38ZM395.836 310.345l35.835 20.69v41.379l-35.835 20.69L360 372.413v-41.38ZM755.836 310.345l35.835 20.69v41.379l-35.835 20.69L720 372.413v-41.38ZM827.836 310.345l35.835 20.69v41.379l-35.835 20.69L792 372.413v-41.38ZM971.836 310.345l35.835 20.69v41.379l-35.835 20.69L936 372.413v-41.38ZM1043.836 310.345l35.835 20.69v41.379l-35.835 20.69-35.836-20.69v-41.38ZM71.836 372.414l35.835 20.69v41.379l-35.835 20.69L36 434.482v-41.38ZM215.836 372.414l35.835 20.69v41.379l-35.835 20.69L180 434.482v-41.38ZM287.836 372.414l35.835 20.69v41.379l-35.835 20.69L252 434.482v-41.38ZM503.836 372.414l35.835 20.69v41.379l-35.835 20.69L468 434.482v-41.38ZM935.836 372.414l35.835 20.69v41.379l-35.835 20.69L900 434.482v-41.38ZM1079.836 372.414l35.835 20.69v41.379l-35.835 20.69-35.836-20.69v-41.38ZM1223.836 372.414l35.835 20.69v41.379l-35.835 20.69-35.836-20.69v-41.38ZM35.836 434.483l35.835 20.69v41.379l-35.835 20.69L0 496.551v-41.38ZM179.836 434.483l35.835 20.69v41.379l-35.835 20.69L144 496.551v-41.38ZM467.836 434.483l35.835 20.69v41.379l-35.835 20.69L432 496.551v-41.38ZM611.836 434.483l35.835 20.69v41.379l-35.835 20.69L576 496.551v-41.38ZM899.836 434.483l35.835 20.69v41.379l-35.835 20.69L864 496.551v-41.38ZM971.836 434.483l35.835 20.69v41.379l-35.835 20.69L936 496.551v-41.38ZM1187.836 434.483l35.835 20.69v41.379l-35.835 20.69-35.836-20.69v-41.38ZM359.836 496.552l35.835 20.69v41.379l-35.835 20.69L324 558.62v-41.38ZM431.836 496.552l35.835 20.69v41.379l-35.835 20.69L396 558.62v-41.38ZM719.836 496.552l35.835 20.69v41.379l-35.835 20.69L684 558.62v-41.38ZM1151.836 496.552l35.835 20.69v41.379l-35.835 20.69L1116 558.62v-41.38ZM1223.836 496.552l35.835 20.69v41.379l-35.835 20.69L1188 558.62v-41.38ZM107.836 558.62l35.835 20.69v41.38l-35.835 20.69L72 620.69v-41.38ZM251.836 558.62l35.835 20.69v41.38l-35.835 20.69L216 620.69v-41.38ZM755.836 558.62l35.835 20.69v41.38l-35.835 20.69L720 620.69v-41.38ZM971.836 558.62l35.835 20.69v41.38l-35.835 20.69L936 620.69v-41.38ZM1115.836 558.62l35.835 20.69v41.38l-35.835 20.69L1080 620.69v-41.38ZM1259.836 558.62l35.835 20.69v41.38l-35.835 20.69L1224 620.69v-41.38ZM71.836 620.69l35.835 20.69v41.379l-35.835 20.69L36 682.758v-41.38ZM215.836 620.69l35.835 20.69v41.379l-35.835 20.69L180 682.758v-41.38ZM575.836 620.69l35.835 20.69v41.379l-35.835 20.69L540 682.758v-41.38ZM1223.836 620.69l35.835 20.69v41.379l-35.835 20.69-35.836-20.69v-41.38ZM107.836 682.759l35.835 20.69v41.379l-35.835 20.69L72 744.827v-41.38ZM323.836 682.759l35.835 20.69v41.379l-35.835 20.69L288 744.827v-41.38ZM539.836 682.759l35.835 20.69v41.379l-35.835 20.69L504 744.827v-41.38ZM611.836 682.759l35.835 20.69v41.379l-35.835 20.69L576 744.827v-41.38ZM971.836 682.759l35.835 20.69v41.379l-35.835 20.69L936 744.827v-41.38ZM1115.836 682.759l35.835 20.69v41.379l-35.835 20.69-35.836-20.69v-41.38ZM1187.836 682.759l35.835 20.69v41.379l-35.835 20.69-35.836-20.69v-41.38ZM1259.836 682.759l35.835 20.69v41.379l-35.835 20.69-35.836-20.69v-41.38ZM143.836 744.828l35.835 20.69v41.379l-35.835 20.69L108 806.896v-41.38ZM431.836 744.828l35.835 20.69v41.379l-35.835 20.69L396 806.896v-41.38ZM791.836 744.828l35.835 20.69v41.379l-35.835 20.69L756 806.896v-41.38ZM863.836 744.828l35.835 20.69v41.379l-35.835 20.69L828 806.896v-41.38ZM1295.836 744.828l35.835 20.69v41.379l-35.835 20.69-35.836-20.69v-41.38ZM35.836 806.897l35.835 20.69v41.379l-35.835 20.69L0 868.965v-41.38ZM107.836 806.897l35.835 20.69v41.379l-35.835 20.69L72 868.965v-41.38ZM755.836 806.897l35.835 20.69v41.379l-35.835 20.69L720 868.965v-41.38ZM899.836 806.897l35.835 20.69v41.379l-35.835 20.69L864 868.965v-41.38ZM1187.836 806.897l35.835 20.69v41.379l-35.835 20.69-35.836-20.69v-41.38ZM1259.836 806.897l35.835 20.69v41.379l-35.835 20.69-35.836-20.69v-41.38ZM71.836 868.966l35.835 20.69v41.378l-35.835 20.69L36 931.034v-41.379ZM359.836 868.966l35.835 20.69v41.378l-35.835 20.69L324 931.034v-41.379ZM503.836 868.966l35.835 20.69v41.378l-35.835 20.69L468 931.034v-41.379ZM719.836 868.966l35.835 20.69v41.378l-35.835 20.69L684 931.034v-41.379ZM935.836 868.966l35.835 20.69v41.378l-35.835 20.69L900 931.034v-41.379ZM1295.836 868.966l35.835 20.69v41.378l-35.835 20.69-35.836-20.69v-41.379ZM35.836 931.034l35.835 20.69v41.38l-35.835 20.69L0 993.103v-41.38ZM107.836 931.034l35.835 20.69v41.38l-35.835 20.69L72 993.103v-41.38ZM467.836 931.034l35.835 20.69v41.38l-35.835 20.69L432 993.103v-41.38ZM539.836 931.034l35.835 20.69v41.38l-35.835 20.69L504 993.103v-41.38ZM611.836 931.034l35.835 20.69v41.38l-35.835 20.69L576 993.103v-41.38ZM683.836 931.034l35.835 20.69v41.38l-35.835 20.69L648 993.103v-41.38ZM827.836 931.034l35.835 20.69v41.38l-35.835 20.69L792 993.103v-41.38ZM899.836 931.034l35.835 20.69v41.38l-35.835 20.69L864 993.103v-41.38ZM1187.836 931.034l35.835 20.69v41.38l-35.835 20.69-35.836-20.69v-41.38ZM71.836 993.103l35.835 20.69v41.38l-35.835 20.69L36 1055.172v-41.38ZM215.836 993.103l35.835 20.69v41.38l-35.835 20.69-35.836-20.69v-41.38ZM503.836 993.103l35.835 20.69v41.38l-35.835 20.69-35.836-20.69v-41.38ZM575.836 993.103l35.835 20.69v41.38l-35.835 20.69-35.836-20.69v-41.38ZM719.836 993.103l35.835 20.69v41.38l-35.835 20.69-35.836-20.69v-41.38ZM863.836 993.103l35.835 20.69v41.38l-35.835 20.69-35.836-20.69v-41.38ZM935.836 993.103l35.835 20.69v41.38l-35.835 20.69-35.836-20.69v-41.38ZM1007.836 993.103l35.835 20.69v41.38l-35.835 20.69-35.836-20.69v-41.38ZM1079.836 993.103l35.835 20.69v41.38l-35.835 20.69-35.836-20.69v-41.38ZM1151.836 993.103l35.835 20.69v41.38l-35.835 20.69-35.836-20.69v-41.38ZM1223.836 993.103l35.835 20.69v41.38l-35.835 20.69-35.836-20.69v-41.38ZM179.836 1055.172l35.835 20.69v41.38l-35.835 20.689-35.836-20.69v-41.379ZM251.836 1055.172l35.835 20.69v41.38l-35.835 20.689-35.836-20.69v-41.379ZM323.836 1055.172l35.835 20.69v41.38l-35.835 20.689-35.836-20.69v-41.379ZM683.836 1055.172l35.835 20.69v41.38l-35.835 20.689-35.836-20.69v-41.379ZM899.836 1055.172l35.835 20.69v41.38l-35.835 20.689-35.836-20.69v-41.379ZM1043.836 1055.172l35.835 20.69v41.38l-35.835 20.689-35.836-20.69v-41.379ZM143.836 1117.241l35.835 20.69v41.38L143.836 1200 108 1179.31v-41.379ZM359.836 1117.241l35.835 20.69v41.38L359.836 1200 324 1179.31v-41.379ZM431.836 1117.241l35.835 20.69v41.38L431.836 1200 396 1179.31v-41.379ZM503.836 1117.241l35.835 20.69v41.38L503.836 1200 468 1179.31v-41.379ZM647.836 1117.241l35.835 20.69v41.38L647.836 1200 612 1179.31v-41.379ZM791.836 1117.241l35.835 20.69v41.38L791.836 1200 756 1179.31v-41.379ZM251.836 1179.31 287.67 1200v41.38l-35.835 20.689-35.836-20.69V1200ZM323.836 1179.31 359.67 1200v41.38l-35.835 20.689-35.836-20.69V1200ZM539.836 1179.31 575.67 1200v41.38l-35.835 20.689-35.836-20.69V1200ZM899.836 1179.31 935.67 1200v41.38l-35.835 20.689-35.836-20.69V1200ZM1043.836 1179.31l35.835 20.69v41.38l-35.835 20.689-35.836-20.69V1200ZM71.836 1241.38l35.835 20.689v41.38l-35.835 20.689L36 1303.448v-41.379ZM143.836 1241.38l35.835 20.689v41.38l-35.835 20.689-35.836-20.69v-41.379ZM215.836 1241.38l35.835 20.689v41.38l-35.835 20.689-35.836-20.69v-41.379ZM791.836 1241.38l35.835 20.689v41.38l-35.835 20.689-35.836-20.69v-41.379ZM863.836 1241.38l35.835 20.689v41.38l-35.835 20.689-35.836-20.69v-41.379ZM1007.836 1241.38l35.835 20.689v41.38l-35.835 20.689-35.836-20.69v-41.379ZM1079.836 1241.38l35.835 20.689v41.38l-35.835 20.689-35.836-20.69v-41.379ZM1151.836 1241.38l35.835 20.689v41.38l-35.835 20.689-35.836-20.69v-41.379ZM1223.836 1241.38l35.835 20.689v41.38l-35.835 20.689-35.836-20.69v-41.379ZM251.836 1303.448l35.835 20.69v41.38l-35.835 20.689-35.836-20.69v-41.38ZM323.836 1303.448l35.835 20.69v41.38l-35.835 20.689-35.836-20.69v-41.38ZM467.836 1303.448l35.835 20.69v41.38l-35.835 20.689-35.836-20.69v-41.38ZM539.836 1303.448l35.835 20.69v41.38l-35.835 20.689-35.836-20.69v-41.38ZM755.836 1303.448l35.835 20.69v41.38l-35.835 20.689-35.836-20.69v-41.38ZM899.836 1303.448l35.835 20.69v41.38l-35.835 20.689-35.836-20.69v-41.38ZM1115.836 1303.448l35.835 20.69v41.38l-35.835 20.689-35.836-20.69v-41.38ZM1259.836 1303.448l35.835 20.69v41.38l-35.835 20.689-35.836-20.69v-41.38ZM575.836 1365.517l35.835 20.69v41.38l-35.835 20.689-35.836-20.69v-41.38ZM791.836 1365.517l35.835 20.69v41.38l-35.835 20.689-35.836-20.69v-41.38ZM863.836 1365.517l35.835 20.69v41.38l-35.835 20.689-35.836-20.69v-41.38ZM935.836 1365.517l35.835 20.69v41.38l-35.835 20.689-35.836-20.69v-41.38ZM1007.836 1365.517l35.835 20.69v41.38l-35.835 20.689-35.836-20.69v-41.38ZM1079.836 1365.517l35.835 20.69v41.38l-35.835 20.689-35.836-20.69v-41.38ZM35.836 1427.586l35.835 20.69v41.38l-35.835 20.689L0 1489.655v-41.38ZM179.836 1427.586l35.835 20.69v41.38l-35.835 20.689-35.836-20.69v-41.38ZM611.836 1427.586l35.835 20.69v41.38l-35.835 20.689-35.836-20.69v-41.38ZM683.836 1427.586l35.835 20.69v41.38l-35.835 20.689-35.836-20.69v-41.38ZM755.836 1427.586l35.835 20.69v41.38l-35.835 20.689-35.836-20.69v-41.38ZM899.836 1427.586l35.835 20.69v41.38l-35.835 20.689-35.836-20.69v-41.38ZM971.836 1427.586l35.835 20.69v41.38l-35.835 20.689-35.836-20.69v-41.38ZM143.836 1489.655l35.835 20.69v41.38l-35.835 20.689-35.836-20.69v-41.38ZM215.836 1489.655l35.835 20.69v41.38l-35.835 20.689-35.836-20.69v-41.38ZM719.836 1489.655l35.835 20.69v41.38l-35.835 20.689-35.836-20.69v-41.38ZM791.836 1489.655l35.835 20.69v41.38l-35.835 20.689-35.836-20.69v-41.38ZM935.836 1489.655l35.835 20.69v41.38l-35.835 20.689-35.836-20.69v-41.38ZM1151.836 1489.655l35.835 20.69v41.38l-35.835 20.689-35.836-20.69v-41.38ZM35.836 1551.724l35.835 20.69v41.38l-35.835 20.689L0 1613.793v-41.38ZM107.836 1551.724l35.835 20.69v41.38l-35.835 20.689L72 1613.793v-41.38ZM179.836 1551.724l35.835 20.69v41.38l-35.835 20.689-35.836-20.69v-41.38ZM323.836 1551.724l35.835 20.69v41.38l-35.835 20.689-35.836-20.69v-41.38ZM611.836 1551.724l35.835 20.69v41.38l-35.835 20.689-35.836-20.69v-41.38ZM755.836 1551.724l35.835 20.69v41.38l-35.835 20.689-35.836-20.69v-41.38ZM899.836 1551.724l35.835 20.69v41.38l-35.835 20.689-35.836-20.69v-41.38ZM71.836 1613.793l35.835 20.69v41.38l-35.835 20.689L36 1675.862v-41.38ZM143.836 1613.793l35.835 20.69v41.38l-35.835 20.689-35.836-20.69v-41.38ZM431.836 1613.793l35.835 20.69v41.38l-35.835 20.689-35.836-20.69v-41.38ZM647.836 1613.793l35.835 20.69v41.38l-35.835 20.689-35.836-20.69v-41.38ZM719.836 1613.793l35.835 20.69v41.38l-35.835 20.689-35.836-20.69v-41.38ZM863.836 1613.793l35.835 20.69v41.38l-35.835 20.689-35.836-20.69v-41.38ZM935.836 1613.793l35.835 20.69v41.38l-35.835 20.689-35.836-20.69v-41.38ZM1007.836 1613.793l35.835 20.69v41.38l-35.835 20.689-35.836-20.69v-41.38ZM1079.836 1613.793l35.835 20.69v41.38l-35.835 20.689-35.836-20.69v-41.38ZM1151.836 1613.793l35.835 20.69v41.38l-35.835 20.689-35.836-20.69v-41.38ZM1223.836 1613.793l35.835 20.69v41.38l-35.835 20.689-35.836-20.69v-41.38ZM35.836 1675.862l35.835 20.69v41.379l-35.835 20.69L0 1737.93v-41.38ZM467.836 1675.862l35.835 20.69v41.379l-35.835 20.69L432 1737.93v-41.38ZM683.836 1675.862l35.835 20.69v41.379l-35.835 20.69L648 1737.93v-41.38ZM1043.836 1675.862l35.835 20.69v41.379l-35.835 20.69-35.836-20.69v-41.38ZM1115.836 1675.862l35.835 20.69v41.379l-35.835 20.69-35.836-20.69v-41.38ZM71.836 1737.931l35.835 20.69V1800l-35.835 20.69L36 1800v-41.38ZM143.836 1737.931l35.835 20.69V1800l-35.835 20.69L108 1800v-41.38ZM215.836 1737.931l35.835 20.69V1800l-35.835 20.69L180 1800v-41.38ZM287.836 1737.931l35.835 20.69V1800l-35.835 20.69L252 1800v-41.38ZM359.836 1737.931l35.835 20.69V1800l-35.835 20.69L324 1800v-41.38ZM575.836 1737.931l35.835 20.69V1800l-35.835 20.69L540 1800v-41.38ZM647.836 1737.931l35.835 20.69V1800l-35.835 20.69L612 1800v-41.38ZM1223.836 1737.931l35.835 20.69V1800l-35.835 20.69L1188 1800v-41.38ZM107.836 1800l35.835 20.69v41.379l-35.835 20.69L72 1862.069v-41.38ZM179.836 1800l35.835 20.69v41.379l-35.835 20.69-35.836-20.69v-41.38ZM611.836 1800l35.835 20.69v41.379l-35.835 20.69-35.836-20.69v-41.38ZM971.836 1800l35.835 20.69v41.379l-35.835 20.69-35.836-20.69v-41.38ZM1115.836 1800l35.835 20.69v41.379l-35.835 20.69-35.836-20.69v-41.38ZM1187.836 1800l35.835 20.69v41.379l-35.835 20.69-35.836-20.69v-41.38ZM71.836 1862.069l35.835 20.69v41.379l-35.835 20.69L36 1924.138v-41.38ZM431.836 1862.069l35.835 20.69v41.379l-35.835 20.69-35.836-20.69v-41.38ZM863.836 1862.069l35.835 20.69v41.379l-35.835 20.69-35.836-20.69v-41.38ZM935.836 1862.069l35.835 20.69v41.379l-35.835 20.69-35.836-20.69v-41.38ZM35.836 1924.138l35.835 20.69v41.379l-35.835 20.69L0 1986.207v-41.38ZM467.836 1924.138l35.835 20.69v41.379l-35.835 20.69-35.836-20.69v-41.38ZM1043.836 1924.138l35.835 20.69v41.379l-35.835 20.69-35.836-20.69v-41.38ZM1187.836 1924.138l35.835 20.69v41.379l-35.835 20.69-35.836-20.69v-41.38ZM143.836 1986.207l35.835 20.69v41.379l-35.835 20.69-35.836-20.69v-41.38ZM287.836 1986.207l35.835 20.69v41.379l-35.835 20.69-35.836-20.69v-41.38ZM719.836 1986.207l35.835 20.69v41.379l-35.835 20.69-35.836-20.69v-41.38ZM1079.836 1986.207l35.835 20.69v41.379l-35.835 20.69-35.836-20.69v-41.38ZM1295.836 1986.207l35.835 20.69v41.379l-35.835 20.69-35.836-20.69v-41.38ZM107.836 2048.276l35.835 20.69v41.379l-35.835 20.69L72 2110.344v-41.38ZM251.836 2048.276l35.835 20.69v41.379l-35.835 20.69-35.836-20.69v-41.38ZM467.836 2048.276l35.835 20.69v41.379l-35.835 20.69-35.836-20.69v-41.38ZM539.836 2048.276l35.835 20.69v41.379l-35.835 20.69-35.836-20.69v-41.38ZM611.836 2048.276l35.835 20.69v41.379l-35.835 20.69-35.836-20.69v-41.38ZM755.836 2048.276l35.835 20.69v41.379l-35.835 20.69-35.836-20.69v-41.38ZM1043.836 2048.276l35.835 20.69v41.379l-35.835 20.69-35.836-20.69v-41.38ZM359.836 2110.345l35.835 20.69v41.379l-35.835 20.69-35.836-20.69v-41.38ZM575.836 2110.345l35.835 20.69v41.379l-35.835 20.69-35.836-20.69v-41.38ZM647.836 2110.345l35.835 20.69v41.379l-35.835 20.69-35.836-20.69v-41.38ZM1151.836 2110.345l35.835 20.69v41.379l-35.835 20.69-35.836-20.69v-41.38ZM1295.836 2110.345l35.835 20.69v41.379l-35.835 20.69-35.836-20.69v-41.38ZM323.836 2172.414l35.835 20.69v41.379l-35.835 20.69-35.836-20.69v-41.38ZM467.836 2172.414l35.835 20.69v41.379l-35.835 20.69-35.836-20.69v-41.38ZM683.836 2172.414l35.835 20.69v41.379l-35.835 20.69-35.836-20.69v-41.38ZM1115.836 2172.414l35.835 20.69v41.379l-35.835 20.69-35.836-20.69v-41.38ZM1187.836 2172.414l35.835 20.69v41.379l-35.835 20.69-35.836-20.69v-41.38ZM1259.836 2172.414l35.835 20.69v41.379l-35.835 20.69-35.836-20.69v-41.38ZM71.836 2234.483l35.835 20.69v41.379l-35.835 20.69L36 2296.551v-41.38ZM143.836 2234.483l35.835 20.69v41.379l-35.835 20.69-35.836-20.69v-41.38ZM215.836 2234.483l35.835 20.69v41.379l-35.835 20.69-35.836-20.69v-41.38ZM575.836 2234.483l35.835 20.69v41.379l-35.835 20.69-35.836-20.69v-41.38ZM647.836 2234.483l35.835 20.69v41.379l-35.835 20.69-35.836-20.69v-41.38ZM1007.836 2234.483l35.835 20.69v41.379l-35.835 20.69-35.836-20.69v-41.38ZM1295.836 2234.483l35.835 20.69v41.379l-35.835 20.69-35.836-20.69v-41.38ZM35.836 2296.552l35.835 20.69v41.379l-35.835 20.69L0 2358.62v-41.38ZM107.836 2296.552l35.835 20.69v41.379l-35.835 20.69L72 2358.62v-41.38ZM179.836 2296.552l35.835 20.69v41.379l-35.835 20.69L144 2358.62v-41.38ZM467.836 2296.552l35.835 20.69v41.379l-35.835 20.69L432 2358.62v-41.38ZM683.836 2296.552l35.835 20.69v41.379l-35.835 20.69L648 2358.62v-41.38ZM1115.836 2296.552l35.835 20.69v41.379l-35.835 20.69-35.836-20.69v-41.38ZM71.836 2358.62l35.835 20.69v41.38l-35.835 20.69L36 2420.69v-41.38ZM215.836 2358.62l35.835 20.69v41.38l-35.835 20.69L180 2420.69v-41.38ZM719.836 2358.62l35.835 20.69v41.38l-35.835 20.69L684 2420.69v-41.38ZM1007.836 2358.62l35.835 20.69v41.38l-35.835 20.69L972 2420.69v-41.38ZM35.836 2420.69l35.835 20.69v41.379l-35.835 20.69L0 2482.758v-41.38ZM539.836 2420.69l35.835 20.69v41.379l-35.835 20.69-35.836-20.69v-41.38ZM683.836 2420.69l35.835 20.69v41.379l-35.835 20.69-35.836-20.69v-41.38ZM827.836 2420.69l35.835 20.69v41.379l-35.835 20.69-35.836-20.69v-41.38ZM1115.836 2420.69l35.835 20.69v41.379l-35.835 20.69-35.836-20.69v-41.38ZM143.836 2482.759l35.835 20.69v41.379l-35.835 20.69-35.836-20.69v-41.38ZM359.836 2482.759l35.835 20.69v41.379l-35.835 20.69-35.836-20.69v-41.38ZM503.836 2482.759l35.835 20.69v41.379l-35.835 20.69-35.836-20.69v-41.38ZM647.836 2482.759l35.835 20.69v41.379l-35.835 20.69-35.836-20.69v-41.38ZM719.836 2482.759l35.835 20.69v41.379l-35.835 20.69-35.836-20.69v-41.38ZM1079.836 2482.759l35.835 20.69v41.379l-35.835 20.69-35.836-20.69v-41.38ZM1295.836 2482.759l35.835 20.69v41.379l-35.835 20.69-35.836-20.69v-41.38ZM35.836 2544.828l35.835 20.69v41.379l-35.835 20.69L0 2606.896v-41.38ZM395.836 2544.828l35.835 20.69v41.379l-35.835 20.69-35.836-20.69v-41.38ZM611.836 2544.828l35.835 20.69v41.379l-35.835 20.69-35.836-20.69v-41.38ZM755.836 2544.828l35.835 20.69v41.379l-35.835 20.69-35.836-20.69v-41.38ZM827.836 2544.828l35.835 20.69v41.379l-35.835 20.69-35.836-20.69v-41.38ZM287.836 2606.897l35.835 20.69v41.379l-35.835 20.69-35.836-20.69v-41.38ZM647.836 2606.897l35.835 20.69v41.379l-35.835 20.69-35.836-20.69v-41.38ZM719.836 2606.897l35.835 20.69v41.379l-35.835 20.69-35.836-20.69v-41.38ZM791.836 2606.897l35.835 20.69v41.379l-35.835 20.69-35.836-20.69v-41.38ZM863.836 2606.897l35.835 20.69v41.379l-35.835 20.69-35.836-20.69v-41.38ZM35.836 2668.966l35.835 20.69v41.378l-35.835 20.69L0 2731.034v-41.379ZM179.836 2668.966l35.835 20.69v41.378l-35.835 20.69-35.836-20.69v-41.379ZM467.836 2668.966l35.835 20.69v41.378l-35.835 20.69-35.836-20.69v-41.379ZM755.836 2668.966l35.835 20.69v41.378l-35.835 20.69-35.836-20.69v-41.379ZM1115.836 2668.966l35.835 20.69v41.378l-35.835 20.69-35.836-20.69v-41.379ZM503.836 2731.034l35.835 20.69v41.38l-35.835 20.69-35.836-20.69v-41.38ZM575.836 2731.034l35.835 20.69v41.38l-35.835 20.69-35.836-20.69v-41.38ZM791.836 2731.034l35.835 20.69v41.38l-35.835 20.69-35.836-20.69v-41.38ZM1223.836 2731.034l35.835 20.69v41.38l-35.835 20.69-35.836-20.69v-41.38ZM107.836 2793.103l35.835 20.69v41.38l-35.835 20.69L72 2855.172v-41.38ZM467.836 2793.103l35.835 20.69v41.38l-35.835 20.69-35.836-20.69v-41.38ZM611.836 2793.103l35.835 20.69v41.38l-35.835 20.69-35.836-20.69v-41.38ZM683.836 2793.103l35.835 20.69v41.38l-35.835 20.69-35.836-20.69v-41.38ZM827.836 2793.103l35.835 20.69v41.38l-35.835 20.69-35.836-20.69v-41.38ZM899.836 2793.103l35.835 20.69v41.38l-35.835 20.69-35.836-20.69v-41.38ZM1115.836 2793.103l35.835 20.69v41.38l-35.835 20.69-35.836-20.69v-41.38ZM1259.836 2793.103l35.835 20.69v41.38l-35.835 20.69-35.836-20.69v-41.38ZM215.836 2855.172l35.835 20.69v41.38l-35.835 20.689-35.836-20.69v-41.379ZM575.836 2855.172l35.835 20.69v41.38l-35.835 20.689-35.836-20.69v-41.379ZM719.836 2855.172l35.835 20.69v41.38l-35.835 20.689-35.836-20.69v-41.379ZM863.836 2855.172l35.835 20.69v41.38l-35.835 20.689-35.836-20.69v-41.379ZM935.836 2855.172l35.835 20.69v41.38l-35.835 20.689-35.836-20.69v-41.379ZM251.836 2917.241l35.835 20.69v41.38L251.836 3000 216 2979.31v-41.379ZM467.836 2917.241l35.835 20.69v41.38L467.836 3000 432 2979.31v-41.379ZM683.836 2917.241l35.835 20.69v41.38L683.836 3000 648 2979.31v-41.379ZM971.836 2917.241l35.835 20.69v41.38L971.836 3000 936 2979.31v-41.379ZM359.836 2979.31 395.67 3000v41.38l-35.835 20.689-35.836-20.69V3000ZM503.836 2979.31 539.67 3000v41.38l-35.835 20.689-35.836-20.69V3000ZM1151.836 2979.31l35.835 20.69v41.38l-35.835 20.689-35.836-20.69V3000ZM35.836 3041.38l35.835 20.689v41.38l-35.835 20.689L0 3103.448v-41.379ZM179.836 3041.38l35.835 20.689v41.38l-35.835 20.689-35.836-20.69v-41.379ZM467.836 3041.38l35.835 20.689v41.38l-35.835 20.689-35.836-20.69v-41.379ZM539.836 3041.38l35.835 20.689v41.38l-35.835 20.689-35.836-20.69v-41.379ZM899.836 3041.38l35.835 20.689v41.38l-35.835 20.689-35.836-20.69v-41.379ZM1043.836 3041.38l35.835 20.689v41.38l-35.835 20.689-35.836-20.69v-41.379ZM1115.836 3041.38l35.835 20.689v41.38l-35.835 20.689-35.836-20.69v-41.379ZM1259.836 3041.38l35.835 20.689v41.38l-35.835 20.689-35.836-20.69v-41.379ZM503.836 3103.448l35.835 20.69v41.38l-35.835 20.689-35.836-20.69v-41.38ZM575.836 3103.448l35.835 20.69v41.38l-35.835 20.689-35.836-20.69v-41.38ZM647.836 3103.448l35.835 20.69v41.38l-35.835 20.689-35.836-20.69v-41.38ZM935.836 3103.448l35.835 20.69v41.38l-35.835 20.689-35.836-20.69v-41.38ZM1079.836 3103.448l35.835 20.69v41.38l-35.835 20.689-35.836-20.69v-41.38ZM755.836 3165.517l35.835 20.69v41.38l-35.835 20.689-35.836-20.69v-41.38ZM827.836 3165.517l35.835 20.69v41.38l-35.835 20.689-35.836-20.69v-41.38ZM899.836 3165.517l35.835 20.69v41.38l-35.835 20.689-35.836-20.69v-41.38ZM71.836 3227.586l35.835 20.69v41.38l-35.835 20.689L36 3289.655v-41.38ZM143.836 3227.586l35.835 20.69v41.38l-35.835 20.689-35.836-20.69v-41.38ZM215.836 3227.586l35.835 20.69v41.38l-35.835 20.689-35.836-20.69v-41.38ZM431.836 3227.586l35.835 20.69v41.38l-35.835 20.689-35.836-20.69v-41.38ZM503.836 3227.586l35.835 20.69v41.38l-35.835 20.689-35.836-20.69v-41.38ZM575.836 3227.586l35.835 20.69v41.38l-35.835 20.689-35.836-20.69v-41.38ZM647.836 3227.586l35.835 20.69v41.38l-35.835 20.689-35.836-20.69v-41.38ZM863.836 3227.586l35.835 20.69v41.38l-35.835 20.689-35.836-20.69v-41.38ZM935.836 3227.586l35.835 20.69v41.38l-35.835 20.689-35.836-20.69v-41.38ZM179.836 3289.655l35.835 20.69v41.38l-35.835 20.689-35.836-20.69v-41.38ZM251.836 3289.655l35.835 20.69v41.38l-35.835 20.689-35.836-20.69v-41.38ZM323.836 3289.655l35.835 20.69v41.38l-35.835 20.689-35.836-20.69v-41.38ZM467.836 3289.655l35.835 20.69v41.38l-35.835 20.689-35.836-20.69v-41.38ZM1115.836 3289.655l35.835 20.69v41.38l-35.835 20.689-35.836-20.69v-41.38ZM143.836 3351.724l35.835 20.69v41.38l-35.835 20.689-35.836-20.69v-41.38ZM215.836 3351.724l35.835 20.69v41.38l-35.835 20.689-35.836-20.69v-41.38ZM359.836 3351.724l35.835 20.69v41.38l-35.835 20.689-35.836-20.69v-41.38ZM431.836 3351.724l35.835 20.69v41.38l-35.835 20.689-35.836-20.69v-41.38ZM719.836 3351.724l35.835 20.69v41.38l-35.835 20.689-35.836-20.69v-41.38ZM935.836 3351.724l35.835 20.69v41.38l-35.835 20.689-35.836-20.69v-41.38ZM395.836 3413.793l35.835 20.69v41.38l-35.835 20.689-35.836-20.69v-41.38ZM611.836 3413.793l35.835 20.69v41.38l-35.835 20.689-35.836-20.69v-41.38ZM971.836 3413.793l35.835 20.69v41.38l-35.835 20.689-35.836-20.69v-41.38ZM215.836 3475.862l35.835 20.69v41.379l-35.835 20.69L180 3537.93v-41.38ZM503.836 3475.862l35.835 20.69v41.379l-35.835 20.69L468 3537.93v-41.38ZM575.836 3475.862l35.835 20.69v41.379l-35.835 20.69L540 3537.93v-41.38ZM647.836 3475.862l35.835 20.69v41.379l-35.835 20.69L612 3537.93v-41.38ZM935.836 3475.862l35.835 20.69v41.379l-35.835 20.69L900 3537.93v-41.38ZM1007.836 3475.862l35.835 20.69v41.379l-35.835 20.69L972 3537.93v-41.38ZM1295.836 3475.862l35.835 20.69v41.379l-35.835 20.69-35.836-20.69v-41.38ZM107.836 3537.931l35.835 20.69V3600l-35.835 20.69L72 3600v-41.38ZM251.836 3537.931l35.835 20.69V3600l-35.835 20.69L216 3600v-41.38ZM323.836 3537.931l35.835 20.69V3600l-35.835 20.69L288 3600v-41.38ZM395.836 3537.931l35.835 20.69V3600l-35.835 20.69L360 3600v-41.38ZM611.836 3537.931l35.835 20.69V3600l-35.835 20.69L576 3600v-41.38ZM755.836 3537.931l35.835 20.69V3600l-35.835 20.69L720 3600v-41.38ZM971.836 3537.931l35.835 20.69V3600l-35.835 20.69L936 3600v-41.38ZM1043.836 3537.931l35.835 20.69V3600l-35.835 20.69L1008 3600v-41.38ZM1115.836 3537.931l35.835 20.69V3600l-35.835 20.69L1080 3600v-41.38ZM215.836 3600l35.835 20.69v41.379l-35.835 20.69-35.836-20.69v-41.38ZM287.836 3600l35.835 20.69v41.379l-35.835 20.69-35.836-20.69v-41.38ZM359.836 3600l35.835 20.69v41.379l-35.835 20.69-35.836-20.69v-41.38ZM503.836 3600l35.835 20.69v41.379l-35.835 20.69-35.836-20.69v-41.38ZM791.836 3600l35.835 20.69v41.379l-35.835 20.69-35.836-20.69v-41.38ZM107.836 3662.069l35.835 20.69v41.379l-35.835 20.69L72 3724.138v-41.38ZM827.836 3662.069l35.835 20.69v41.379l-35.835 20.69-35.836-20.69v-41.38ZM899.836 3662.069l35.835 20.69v41.379l-35.835 20.69-35.836-20.69v-41.38ZM971.836 3662.069l35.835 20.69v41.379l-35.835 20.69-35.836-20.69v-41.38ZM1043.836 3662.069l35.835 20.69v41.379l-35.835 20.69-35.836-20.69v-41.38ZM1115.836 3662.069l35.835 20.69v41.379l-35.835 20.69-35.836-20.69v-41.38ZM1187.836 3662.069l35.835 20.69v41.379l-35.835 20.69-35.836-20.69v-41.38ZM431.836 3724.138l35.835 20.69v41.379l-35.835 20.69-35.836-20.69v-41.38ZM503.836 3724.138l35.835 20.69v41.379l-35.835 20.69-35.836-20.69v-41.38ZM1007.836 3724.138l35.835 20.69v41.379l-35.835 20.69-35.836-20.69v-41.38ZM1079.836 3724.138l35.835 20.69v41.379l-35.835 20.69-35.836-20.69v-41.38ZM35.836 3786.207l35.835 20.69v41.379l-35.835 20.69L0 3848.276v-41.38ZM251.836 3786.207l35.835 20.69v41.379l-35.835 20.69-35.836-20.69v-41.38ZM395.836 3786.207l35.835 20.69v41.379l-35.835 20.69-35.836-20.69v-41.38ZM683.836 3786.207l35.835 20.69v41.379l-35.835 20.69-35.836-20.69v-41.38ZM755.836 3786.207l35.835 20.69v41.379l-35.835 20.69-35.836-20.69v-41.38ZM899.836 3786.207l35.835 20.69v41.379l-35.835 20.69-35.836-20.69v-41.38ZM971.836 3786.207l35.835 20.69v41.379l-35.835 20.69-35.836-20.69v-41.38ZM1187.836 3786.207l35.835 20.69v41.379l-35.835 20.69-35.836-20.69v-41.38ZM143.836 3848.276l35.835 20.69v41.379l-35.835 20.69-35.836-20.69v-41.38ZM359.836 3848.276l35.835 20.69v41.379l-35.835 20.69-35.836-20.69v-41.38ZM431.836 3848.276l35.835 20.69v41.379l-35.835 20.69-35.836-20.69v-41.38ZM575.836 3848.276l35.835 20.69v41.379l-35.835 20.69-35.836-20.69v-41.38ZM647.836 3848.276l35.835 20.69v41.379l-35.835 20.69-35.836-20.69v-41.38ZM1079.836 3848.276l35.835 20.69v41.379l-35.835 20.69-35.836-20.69v-41.38ZM1151.836 3848.276l35.835 20.69v41.379l-35.835 20.69-35.836-20.69v-41.38ZM1295.836 3848.276l35.835 20.69v41.379l-35.835 20.69-35.836-20.69v-41.38Z" />
    </g>
    <defs>
        <radialGradient id="a">
            <stop offset="0" stop-color="#222" />
            <stop offset="1" stop-color="#fff" stop-opacity="0" />
        </radialGradient>
    </defs>
</svg>
    