<?xml version="1.0" encoding="UTF-8" standalone="no"?>
<!-- Uploaded to: SVG Repo, www.svgrepo.com, Generator: SVG Repo Mixer Tools -->

<svg
   fill="#000000"
   width="117.03228"
   height="183.72528"
   viewBox="0 0 2.925807 4.593132"
   version="1.1"
   id="svg4"
   sodipodi:docname="favicon-2.svg"
   inkscape:version="1.1.2 (0a00cf5339, 2022-02-04)"
   xmlns:inkscape="http://www.inkscape.org/namespaces/inkscape"
   xmlns:sodipodi="http://sodipodi.sourceforge.net/DTD/sodipodi-0.dtd"
   xmlns:xlink="http://www.w3.org/1999/xlink"
   xmlns="http://www.w3.org/2000/svg"
   xmlns:svg="http://www.w3.org/2000/svg">
  <sodipodi:namedview
     id="namedview22"
     pagecolor="#505050"
     bordercolor="#ffffff"
     borderopacity="1"
     inkscape:pageshadow="0"
     inkscape:pageopacity="0"
     inkscape:pagecheckerboard="1"
     showgrid="false"
     inkscape:zoom="3.9134516"
     inkscape:cx="58.516119"
     inkscape:cy="91.734876"
     inkscape:window-width="3840"
     inkscape:window-height="1131"
     inkscape:window-x="0"
     inkscape:window-y="0"
     inkscape:window-maximized="1"
     inkscape:current-layer="g31485" />
  <defs
     id="defs8">
    <linearGradient
       inkscape:collect="always"
       id="linearGradient843">
      <stop
         style="stop-color:#00dbde;stop-opacity:1"
         offset="0"
         id="stop839" />
      <stop
         style="stop-color:#fc00ff;stop-opacity:1"
         offset="1"
         id="stop841" />
    </linearGradient>
    <linearGradient
       inkscape:collect="always"
       xlink:href="#linearGradient843"
       id="linearGradient845"
       x1="-7.1213002"
       y1="38.184353"
       x2="-6.5787997"
       y2="42.621983"
       gradientUnits="userSpaceOnUse" />
  </defs>
  <text
     xml:space="preserve"
     style="font-size:1.6px;line-height:1.25;font-family:Chunk;-inkscape-font-specification:Chunk;letter-spacing:0px;word-spacing:0px;stroke-width:0.025"
     x="15.155168"
     y="2.955127"
     id="text76230"><tspan
       id="tspan76228"
       style="stroke-width:0.025"
       x="15.155168"
       y="2.955127" /></text>
  <text
     xml:space="preserve"
     style="font-style:normal;font-variant:normal;font-weight:normal;font-stretch:normal;font-size:1.6px;line-height:1.25;font-family:ChunkFive;-inkscape-font-specification:ChunkFive;letter-spacing:0px;word-spacing:0px;stroke-width:0.025"
     x="11.841147"
     y="2.005626"
     id="text2229"><tspan
       id="tspan2227"
       style="font-style:normal;font-variant:normal;font-weight:normal;font-stretch:normal;font-family:ChunkFive;-inkscape-font-specification:ChunkFive;stroke-width:0.025"
       x="11.841147"
       y="2.005626" /></text>
  <text
     xml:space="preserve"
     style="font-style:normal;font-variant:normal;font-weight:normal;font-stretch:normal;font-size:1.6px;line-height:1.25;font-family:ChunkFive;-inkscape-font-specification:ChunkFive;letter-spacing:0px;word-spacing:0px;stroke-width:0.025"
     x="15.338222"
     y="3.6693566"
     id="text3883"><tspan
       id="tspan3881"
       style="font-style:normal;font-variant:normal;font-weight:normal;font-stretch:normal;font-family:ChunkFive;-inkscape-font-specification:ChunkFive;stroke-width:0.025"
       x="15.338222"
       y="3.6693566" /></text>
  <g
     id="g31485"
     style="fill:url(#linearGradient845);fill-opacity:1"
     transform="matrix(1,0,0,0.93762392,8.1657552,-35.714582)">
    <g
       aria-label="LA"
       id="text14967"
       style="font-size:0.577149px;line-height:1.25;font-family:ChunkFive;-inkscape-font-specification:ChunkFive;letter-spacing:0px;word-spacing:0px;fill:url(#linearGradient845);stroke-width:0.00901792;fill-opacity:1.0" />
    <g
       aria-label="ZY"
       transform="matrix(0.95060574,0,0,1.0519608,-0.01461194,0.02335465)"
       id="text16291"
       style="font-size:0.618233px;line-height:1.25;font-family:ChunkFive;-inkscape-font-specification:ChunkFive;letter-spacing:0px;word-spacing:0px;fill:url(#linearGradient845);stroke-width:0.00965991;fill-opacity:1.0" />
    <path
       id="circle31310"
       style="opacity:1;stroke-width:0.046891"
       d="m -6.4289154,38.227535 a 0.06307705,0.06307705 0 0 1 -0.063077,0.06308 0.06307705,0.06307705 0 0 1 -0.063077,-0.06308 0.06307705,0.06307705 0 0 1 0.063077,-0.06308 0.06307705,0.06307705 0 0 1 0.063077,0.06308 z m 0.2714021,0.106034 a 0.24304895,0.24304895 0 0 1 -0.243049,0.243049 0.24304895,0.24304895 0 0 1 -0.2430489,-0.243049 0.24304895,0.24304895 0 0 1 0.2430489,-0.243049 0.24304895,0.24304895 0 0 1 0.243049,0.243049 z m -0.2421152,0.693584 a 0.10088883,0.10088883 0 0 1 -0.1008889,0.100889 0.10088883,0.10088883 0 0 1 -0.1008888,-0.100889 0.10088883,0.10088883 0 0 1 0.1008888,-0.100889 0.10088883,0.10088883 0 0 1 0.1008889,0.100889 z m -0.436835,-0.336468 a 0.19339316,0.19339316 0 0 1 -0.1933932,0.193393 0.19339316,0.19339316 0 0 1 -0.1933931,-0.193393 0.19339316,0.19339316 0 0 1 0.1933931,-0.193393 0.19339316,0.19339316 0 0 1 0.1933932,0.193393 z m 1.481973,3.476484 c -0.415833,-1.071846 -0.911625,-1.358505 -0.905875,-1.890769 l 0.0067,-0.626924 0.104487,0.0012 a 0.10449345,0.10449345 0 0 0 0.10567,-0.103306 l 0.0022,-0.208986 a 0.10449345,0.10449345 0 0 0 -0.103369,-0.105634 l -1.044912,-0.01131 a 0.10449345,0.10449345 0 0 0 -0.10567,0.103305 l -0.0022,0.208985 a 0.10449345,0.10449345 0 0 0 0.103369,0.105608 l 0.104488,0.0012 -0.0068,0.626925 c -0.0057,0.53226 -0.507606,0.808152 -0.946478,1.870775 -0.139722,0.33811 -0.494471,0.830658 1.335102,0.850408 1.829577,0.01974 1.485526,-0.480336 1.353148,-0.821395 z m -0.34186,0.36227 c -0.147172,0.04229 -0.439651,0.08909 -1.007227,0.08297 -0.567576,-0.0062 -0.858974,-0.05922 -1.005202,-0.104682 -0.05187,-0.01603 -0.07146,-0.07665 -0.0525,-0.131814 0.04748,-0.139505 0.136829,-0.380573 0.301904,-0.649027 0.403342,-0.655874 0.806149,0.112572 1.148239,0.116277 0.342093,0.0036 0.251779,-0.323539 0.382293,-0.09974 a 3.2085764,3.2085764 0 0 1 0.287825,0.655391 c 0.01781,0.05557 -0.0031,0.115523 -0.05533,0.130661 z m -0.3208517,-0.314405 c 0.00103,-0.0089 0.00557,-0.02398 0.013955,-0.04465 0.00156,-0.0045 0.00313,-0.009 0.00472,-0.0135 0.00984,-0.02272 0.020162,-0.04536 0.03111,-0.0678 -0.01059,1.23e-4 -0.021186,2.36e-4 -0.031789,3.41e-4 1.427e-4,-0.02854 8.302e-4,-0.05712 0.00206,-0.08577 0.053744,4.96e-4 0.1076838,0.0012 0.1618285,0.0022 -0.00393,0.02725 -0.00686,0.05438 -0.00881,0.08139 -0.010343,1.98e-4 -0.020693,3.86e-4 -0.03105,5.62e-4 -0.039119,0.06969 -0.070003,0.143215 -0.097694,0.216796 0.00242,0.02548 0.00533,0.05091 0.00872,0.07631 0.010645,-0.0011 0.021265,-0.0022 0.031861,-0.0035 0.00405,0.02811 0.00879,0.05613 0.014232,0.08409 -0.062512,0.0094 -0.1256433,0.01521 -0.189226,0.01868 -0.00324,-0.02953 -0.00622,-0.05907 -0.00894,-0.08863 0.011049,-4.59e-4 0.022077,-9.78e-4 0.033082,-0.0016 -0.00266,-0.02668 -0.00507,-0.05337 -0.0072,-0.08008 -0.041159,-0.06894 -0.084727,-0.148136 -0.1243499,-0.219325 -0.00953,1.3e-5 -0.019055,2.4e-5 -0.02859,3.1e-5 -0.00148,-0.02935 -0.00289,-0.0587 -0.00422,-0.08804 0.067587,3.6e-5 0.1354629,2.3e-4 0.2036496,7.19e-4 -6.09e-4,0.02889 -7.799e-4,0.05773 -5.129e-4,0.08654 -0.010043,7.7e-5 -0.020092,1.47e-4 -0.030147,2.11e-4 0.011607,0.02384 0.023343,0.04774 0.035131,0.07122 0.00419,0.01199 0.00721,0.02006 0.00888,0.02402 0.00678,0.01687 0.010491,0.0267 0.011041,0.02985 -8e-7,0 0.00226,-8.4e-5 0.00226,-8.4e-5 z M -6.6346643,42.1818 c -0.00246,-0.05957 -0.00534,-0.119138 -0.00862,-0.178701 0.1276113,-7.5e-5 0.2561354,-5.81e-4 0.3857204,-5.38e-4 0.00184,0.03049 0.00375,0.06098 0.00572,0.0915 -0.0761,0.11476 -0.1195804,0.184194 -0.1997516,0.297445 0.036994,6.6e-4 0.07384,0.0013 0.1105139,0.0016 -0.00129,-0.02947 -0.00262,-0.05891 -0.004,-0.08833 0.034731,2.36e-4 0.069275,3.07e-4 0.1036128,1.03e-4 0.00375,0.05974 0.00779,0.119529 0.012092,0.179358 -0.1323845,0.0018 -0.266233,-0.0035 -0.4000551,-0.0061 -5.438e-4,-0.02944 -0.00119,-0.05889 -0.00193,-0.08833 0.077774,-0.10719 0.132685,-0.18751 0.2037856,-0.296514 -0.032042,1.3e-4 -0.079166,3.09e-4 -0.1112076,4.39e-4 0.00192,0.02955 0.00373,0.05912 0.00541,0.0887 -0.033639,-2.21e-4 -0.067402,-4.18e-4 -0.1012828,-5.39e-4 z m -0.061927,0.280949 c -0.089505,0.0018 -0.1790835,0.002 -0.2685225,-8.6e-5 0.0031,-0.02929 0.00609,-0.05858 0.00896,-0.08786 0.020352,3.76e-4 0.040715,6.58e-4 0.061089,8.52e-4 -0.00342,-0.01529 -0.00676,-0.03057 -0.010043,-0.04585 -0.043123,-4.31e-4 -0.086192,-0.0012 -0.1291888,-0.0024 -0.00634,0.01498 -0.012818,0.02993 -0.019444,0.04485 0.016674,5.67e-4 0.033358,0.0011 0.050051,0.0015 -0.00347,0.02918 -0.00711,0.05837 -0.010921,0.08756 -0.07088,-0.0023 -0.1416485,-0.006 -0.212199,-0.01132 0.00689,-0.02831 0.01339,-0.05665 0.019494,-0.08499 0.014469,8.86e-4 0.028949,0.0017 0.04344,0.0025 0.047256,-0.09411 0.087194,-0.190472 0.1226141,-0.287316 -0.00795,-3.5e-5 -0.01589,-7.2e-5 -0.023834,-1.1e-4 0.00288,-0.02845 0.0055,-0.05691 0.00784,-0.08537 0.073344,-4.62e-4 0.1465844,-6.96e-4 0.2197436,-7.51e-4 0.027808,0.127872 0.057081,0.254138 0.094426,0.381602 0.015038,-1.6e-4 0.030078,-3.62e-4 0.045119,-6.03e-4 3.493e-4,0.02928 8.064e-4,0.05855 0.00137,0.08782 z m -0.3053904,-0.214836 c 0.026662,4.7e-4 0.05335,8.28e-4 0.080061,0.0011 -0.0097,-0.04855 -0.018903,-0.09673 -0.028071,-0.145083 -0.016388,0.04812 -0.033625,0.0962 -0.05199,0.144001 z m -0.4932819,-0.247402 c 0.060763,-0.0013 0.1214265,-0.0023 0.1820034,-0.0032 -0.00305,0.02757 -0.00674,0.05509 -0.011064,0.08257 -0.010247,-1.21e-4 -0.020492,-2.47e-4 -0.030735,-3.78e-4 -0.014642,0.08941 -0.036667,0.178265 -0.066074,0.266558 0.02719,0.0029 0.054434,0.0055 0.081726,0.0079 0.00757,-0.02657 0.014622,-0.05317 0.021142,-0.07981 0.03433,0.0023 0.068735,0.0042 0.1032034,0.0059 -0.011113,0.05602 -0.0239,0.111973 -0.03836,0.167845 -0.1241402,-0.01018 -0.2475643,-0.02561 -0.3696957,-0.04761 0.013078,-0.02486 0.025211,-0.04982 0.036398,-0.07487 0.011489,0.0017 0.022991,0.0033 0.034504,0.0049 0.035033,-0.08328 0.060582,-0.16746 0.076646,-0.252526 -0.010614,-1.75e-4 -0.021226,-3.55e-4 -0.031836,-5.41e-4 0.00498,-0.02546 0.00903,-0.05102 0.012142,-0.07667 z" />
  </g>
</svg>
