<?xml version="1.0" encoding="UTF-8" standalone="no"?>
<!-- Uploaded to: SVG Repo, www.svgrepo.com, Generator: SVG Repo Mixer Tools -->

<svg
   fill="#000000"
   width="117.03228"
   height="183.72528"
   viewBox="0 0 2.925807 4.593132"
   version="1.1"
   id="svg4"
   sodipodi:docname="favicon-4.svg"
   inkscape:version="1.1.2 (0a00cf5339, 2022-02-04)"
   xmlns:inkscape="http://www.inkscape.org/namespaces/inkscape"
   xmlns:sodipodi="http://sodipodi.sourceforge.net/DTD/sodipodi-0.dtd"
   xmlns:xlink="http://www.w3.org/1999/xlink"
   xmlns="http://www.w3.org/2000/svg"
   xmlns:svg="http://www.w3.org/2000/svg">
  <sodipodi:namedview
     id="namedview22"
     pagecolor="#505050"
     bordercolor="#ffffff"
     borderopacity="1"
     inkscape:pageshadow="0"
     inkscape:pageopacity="0"
     inkscape:pagecheckerboard="1"
     showgrid="false"
     inkscape:zoom="3.9134516"
     inkscape:cx="-30.40794"
     inkscape:cy="72.825738"
     inkscape:window-width="3840"
     inkscape:window-height="1131"
     inkscape:window-x="0"
     inkscape:window-y="0"
     inkscape:window-maximized="1"
     inkscape:current-layer="g31485" />
  <defs
     id="defs8">
    <linearGradient
       inkscape:collect="always"
       id="linearGradient843">
      <stop
         style="stop-color:#00dbde;stop-opacity:1"
         offset="0"
         id="stop839" />
      <stop
         style="stop-color:#fc00ff;stop-opacity:1"
         offset="1"
         id="stop841" />
    </linearGradient>
    <linearGradient
       inkscape:collect="always"
       xlink:href="#linearGradient843"
       id="linearGradient845"
       x1="-7.1213002"
       y1="38.184353"
       x2="-6.5787997"
       y2="42.621983"
       gradientUnits="userSpaceOnUse" />
  </defs>
  <text
     xml:space="preserve"
     style="font-size:1.6px;line-height:1.25;font-family:Chunk;-inkscape-font-specification:Chunk;letter-spacing:0px;word-spacing:0px;stroke-width:0.025"
     x="15.155168"
     y="2.955127"
     id="text76230"><tspan
       id="tspan76228"
       style="stroke-width:0.025"
       x="15.155168"
       y="2.955127" /></text>
  <text
     xml:space="preserve"
     style="font-style:normal;font-variant:normal;font-weight:normal;font-stretch:normal;font-size:1.6px;line-height:1.25;font-family:ChunkFive;-inkscape-font-specification:ChunkFive;letter-spacing:0px;word-spacing:0px;stroke-width:0.025"
     x="11.841147"
     y="2.005626"
     id="text2229"><tspan
       id="tspan2227"
       style="font-style:normal;font-variant:normal;font-weight:normal;font-stretch:normal;font-family:ChunkFive;-inkscape-font-specification:ChunkFive;stroke-width:0.025"
       x="11.841147"
       y="2.005626" /></text>
  <text
     xml:space="preserve"
     style="font-style:normal;font-variant:normal;font-weight:normal;font-stretch:normal;font-size:1.6px;line-height:1.25;font-family:ChunkFive;-inkscape-font-specification:ChunkFive;letter-spacing:0px;word-spacing:0px;stroke-width:0.025"
     x="15.338222"
     y="3.6693566"
     id="text3883"><tspan
       id="tspan3881"
       style="font-style:normal;font-variant:normal;font-weight:normal;font-stretch:normal;font-family:ChunkFive;-inkscape-font-specification:ChunkFive;stroke-width:0.025"
       x="15.338222"
       y="3.6693566" /></text>
  <g
     id="g31485"
     style="fill:url(#linearGradient845);fill-opacity:1"
     transform="matrix(1,0,0,0.93762392,8.1657552,-35.714582)">
    <g
       aria-label="LA"
       id="text14967"
       style="font-size:0.577149px;line-height:1.25;font-family:ChunkFive;-inkscape-font-specification:ChunkFive;letter-spacing:0px;word-spacing:0px;fill:url(#linearGradient845);stroke-width:0.00901792;fill-opacity:1.0" />
    <g
       aria-label="ZY"
       transform="matrix(0.95060574,0,0,1.0519608,-0.01461194,0.02335465)"
       id="text16291"
       style="font-size:0.618233px;line-height:1.25;font-family:ChunkFive;-inkscape-font-specification:ChunkFive;letter-spacing:0px;word-spacing:0px;fill:url(#linearGradient845);stroke-width:0.00965991;fill-opacity:1.0" />
    <path
       id="circle31310"
       style="opacity:1;stroke-width:0.046891"
       d="m -6.4289154,38.227535 c 1.6e-6,0.03484 -0.028239,0.06308 -0.063077,0.06308 -0.034838,0 -0.063079,-0.02824 -0.063077,-0.06308 -1.6e-6,-0.03484 0.028239,-0.06308 0.063077,-0.06308 0.034838,0 0.063079,0.02824 0.063077,0.06308 z m 0.2714021,0.106034 c 0,0.134232 -0.1088167,0.243049 -0.243049,0.243049 -0.1342322,0 -0.2430489,-0.108817 -0.2430489,-0.243049 0,-0.134232 0.1088167,-0.243049 0.2430489,-0.243049 0.1342323,0 0.243049,0.108817 0.243049,0.243049 z m -0.2421152,0.693584 c 1e-7,0.05572 -0.045169,0.100889 -0.1008889,0.100889 -0.055719,0 -0.1008889,-0.04517 -0.1008888,-0.100889 -1e-7,-0.05572 0.045169,-0.100889 0.1008888,-0.100889 0.055719,0 0.100889,0.04517 0.1008889,0.100889 z m -0.436835,-0.336468 c -1e-7,0.106808 -0.086585,0.193393 -0.1933932,0.193393 -0.106808,0 -0.193393,-0.08658 -0.1933931,-0.193393 10e-8,-0.106808 0.086585,-0.193393 0.1933931,-0.193393 0.106808,0 0.1933931,0.08658 0.1933932,0.193393 z m 1.481973,3.476484 c -0.415833,-1.071846 -0.911625,-1.358505 -0.905875,-1.890769 l 0.0067,-0.626924 0.104487,0.0012 c 0.057707,6.53e-4 0.1050179,-0.0456 0.10567,-0.103306 l 0.0022,-0.208986 c 6.333e-4,-0.05772 -0.045651,-0.105016 -0.103369,-0.105634 l -1.044912,-0.01131 c -0.057707,-6.53e-4 -0.1050173,0.0456 -0.10567,0.103305 l -0.0022,0.208985 c -6.189e-4,0.05771 0.045661,0.10499 0.103369,0.105608 l 0.104488,0.0012 -0.0068,0.626925 c -0.0057,0.53226 -0.507606,0.808152 -0.946478,1.870775 -0.139722,0.33811 -0.494471,0.830658 1.335102,0.850408 1.829577,0.01974 1.485526,-0.480336 1.353148,-0.821395 z m -0.34186,0.36227 c -0.147172,0.04229 -0.439651,0.08909 -1.007227,0.08297 -0.567576,-0.0062 -0.858974,-0.05922 -1.005202,-0.104682 -0.05187,-0.01603 -0.07146,-0.07665 -0.0525,-0.131814 0.04748,-0.139505 0.136829,-0.380573 0.301904,-0.649027 0.403342,-0.655874 0.806149,0.112572 1.148239,0.116277 0.342093,0.0036 0.251779,-0.323539 0.382293,-0.09974 0.1200864,0.207044 0.2166287,0.426876 0.287825,0.655391 0.01781,0.05557 -0.0031,0.115523 -0.05533,0.130661 z m -0.4109342,-0.04926 c -1.3723137,-2.926442 -0.6861568,-1.463221 0,0 z m -0.1220921,0.0041 c -1.2909189,-2.929145 -0.6454595,-1.464573 0,0 z"
       sodipodi:nodetypes="cscscsssssssssssssssccccccccccccccccccccccccccccccc" />
  </g>
</svg>
