<?xml version="1.0" encoding="UTF-8" standalone="no"?>
<!-- Uploaded to: SVG Repo, www.svgrepo.com, Generator: SVG Repo Mixer Tools -->

<svg
   fill="#000000"
   width="291.51428"
   height="157.94278"
   viewBox="0 0 7.2878571 3.9485695"
   version="1.1"
   id="svg4"
   sodipodi:docname="lazy-lab-logo-6.svg"
   inkscape:version="1.2.2 (b0a8486541, 2022-12-01)"
   xmlns:inkscape="http://www.inkscape.org/namespaces/inkscape"
   xmlns:sodipodi="http://sodipodi.sourceforge.net/DTD/sodipodi-0.dtd"
   xmlns="http://www.w3.org/2000/svg"
   xmlns:svg="http://www.w3.org/2000/svg">
  <sodipodi:namedview
     id="namedview54999"
     pagecolor="#505050"
     bordercolor="#ffffff"
     borderopacity="1"
     inkscape:pageshadow="0"
     inkscape:pageopacity="0"
     inkscape:pagecheckerboard="1"
     showgrid="false"
     inkscape:zoom="2.2539888"
     inkscape:cx="92.05902"
     inkscape:cy="115.79472"
     inkscape:window-width="3840"
     inkscape:window-height="1131"
     inkscape:window-x="0"
     inkscape:window-y="0"
     inkscape:window-maximized="1"
     inkscape:current-layer="svg4"
     inkscape:showpageshadow="0"
     inkscape:deskcolor="#505050" />
  <defs
     id="defs8" />
  <g
     aria-label="LAZY "
     id="text10208"
     style="font-size:1.94466px;line-height:1.25;font-family:ChunkFive;-inkscape-font-specification:ChunkFive;letter-spacing:0px;word-spacing:0px;stroke-width:0.0303853">
    <path
       d="M 1.8267616,1.1331812 H 1.9337179 V 1.9771636 H 1.8267616 V 2.2358034 H 2.9157711 V 1.7301918 H 2.5890683 V 1.9771636 H 2.3382071 V 1.1331812 h 0.103067 V 0.87648606 H 1.8267616 Z"
       id="path1715" />
    <path
       d="M 4.5356741,1.9810529 H 4.3995479 L 4.0553431,0.87648606 H 3.3085937 V 1.1273472 h 0.079731 L 3.1257956,1.9810529 H 2.9935587 V 2.2358034 H 3.6119606 V 1.9810529 H 3.4602771 L 3.501115,1.848816 h 0.3986553 l 0.040838,0.1322369 H 3.7558654 V 2.2358034 H 4.5356741 Z M 3.6994703,1.1954103 3.8278179,1.6154568 H 3.5730674 Z"
       id="path1717" />
    <path
       d="M 4.9557205,1.3879316 4.9537759,1.1351258 5.3213166,1.1331812 4.6134604,1.9829976 V 2.2358034 H 5.8988806 V 1.7301918 H 5.5546758 l -0.00194,0.2489165 H 5.1929691 L 5.9047146,1.1351258 5.9008253,0.87648606 H 4.6251284 V 1.3879316 Z"
       id="path1719" />
    <path
       d="M 6.6709117,1.4890539 C 6.6631331,1.4559947 6.6222952,1.368485 6.6106272,1.3315365 L 6.497837,1.1254025 H 6.5989593 V 0.87648606 H 5.9338856 V 1.1254025 h 0.095288 L 6.406438,1.7535277 V 1.9829976 H 6.2955923 V 2.2358034 H 6.9178835 V 1.9829976 H 6.8089826 V 1.757417 L 7.1687447,1.1254025 H 7.2737563 V 0.87648606 H 6.7506428 V 1.1254025 H 6.8575991 L 6.7506428,1.3218132 C 6.7292515,1.368485 6.686469,1.4501607 6.6786903,1.4890539 Z"
       id="path1721" />
  </g>
  <text
     xml:space="preserve"
     style="font-size:1.6px;line-height:1.25;font-family:Chunk;-inkscape-font-specification:Chunk;letter-spacing:0px;word-spacing:0px;stroke-width:0.025"
     x="17.101414"
     y="0.7668947"
     id="text76230"><tspan
       id="tspan76228"
       style="stroke-width:0.025"
       x="17.101414"
       y="0.7668947" /></text>
  <text
     xml:space="preserve"
     style="font-style:normal;font-variant:normal;font-weight:normal;font-stretch:normal;font-size:1.6px;line-height:1.25;font-family:ChunkFive;-inkscape-font-specification:ChunkFive;letter-spacing:0px;word-spacing:0px;stroke-width:0.025"
     x="13.787395"
     y="-0.18260624"
     id="text2229"><tspan
       id="tspan2227"
       style="font-style:normal;font-variant:normal;font-weight:normal;font-stretch:normal;font-family:ChunkFive;-inkscape-font-specification:ChunkFive;stroke-width:0.025"
       x="13.787395"
       y="-0.18260624" /></text>
  <text
     xml:space="preserve"
     style="font-style:normal;font-variant:normal;font-weight:normal;font-stretch:normal;font-size:1.6px;line-height:1.25;font-family:ChunkFive;-inkscape-font-specification:ChunkFive;letter-spacing:0px;word-spacing:0px;stroke-width:0.025"
     x="17.284468"
     y="1.4811244"
     id="text3883"><tspan
       id="tspan3881"
       style="font-style:normal;font-variant:normal;font-weight:normal;font-stretch:normal;font-family:ChunkFive;-inkscape-font-specification:ChunkFive;stroke-width:0.025"
       x="17.284468"
       y="1.4811244" /></text>
  <g
     aria-label="LAB"
     id="text25134"
     style="font-size:2.04425px;line-height:1.25;font-family:ChunkFive;-inkscape-font-specification:ChunkFive;letter-spacing:0px;word-spacing:0px;stroke-width:0.0319414">
    <path
       d="M 3.0255983,2.7023685 H 3.1380321 V 3.5895731 H 3.0255983 v 0.2718852 h 1.14478 V 3.3299533 H 3.8269443 V 3.5895731 H 3.5632361 V 2.7023685 h 0.1083452 v -0.269841 h -0.645983 z"
       id="path1708" />
    <path
       d="M 5.8732399,3.5936616 H 5.7301424 L 5.3683101,2.4325275 h -0.784992 v 0.2637083 h 0.083814 L 4.3911586,3.5936616 H 4.2521496 V 3.8614583 H 4.9022211 V 3.5936616 H 4.7427696 l 0.042929,-0.1390091 h 0.4190712 l 0.042929,0.1390091 H 5.0534956 V 3.8614583 H 5.8732399 Z M 4.9942124,2.7677845 5.1291329,3.2093425 H 4.8613361 Z"
       id="path1710" />
    <path
       d="m 6.7318247,3.8614583 c 0.3945403,0 0.556036,-0.1267435 0.556036,-0.4149828 0,-0.1982922 -0.122655,-0.3066375 -0.269841,-0.3475225 0.1533188,-0.061327 0.2003365,-0.1451417 0.2003365,-0.3168587 0,-0.2228233 -0.1614957,-0.3495668 -0.5008412,-0.3495668 H 5.9550097 v 0.2637083 h 0.1185665 v 0.89947 H 5.9550097 V 3.8614583 Z M 6.6255237,2.7023685 c 0.077682,0 0.1349205,0.055195 0.1349205,0.1492303 0,0.098124 -0.030664,0.1574072 -0.139009,0.1574072 H 6.496736 V 2.7023685 Z M 6.496736,3.5957058 V 3.2400063 h 0.1574072 c 0.1124338,0 0.171717,0.075637 0.171717,0.179894 0,0.1103895 -0.079726,0.1758055 -0.1655842,0.1758055 z"
       id="path1712" />
  </g>
  <g
     id="g55419"
     transform="translate(2.3764041,-0.51151004)">
    <ellipse
       style="fill:#000000;stroke-width:0.0726232"
       id="path31152-8"
       cx="-2.1168561"
       cy="1.1140187"
       rx="0.1934"
       ry="0.18133005" />
    <ellipse
       style="fill:#000000;stroke-width:0.0827121"
       id="path31154-4"
       cx="-1.7756295"
       cy="1.408855"
       rx="0.114904"
       ry="0.10773674" />
    <ellipse
       style="fill:#000000;stroke-width:0.114263"
       id="path31156-8"
       cx="-1.5391507"
       cy="0.87006289"
       rx="0.38240579"
       ry="0.35855284" />
  </g>
  <g
     id="g55414"
     transform="translate(4.4856958,-1.5528605)">
    <path
       d="m -2.4997145,5.0090541 -0.347394,0.4923758 -0.703255,-0.4961796 0.0993,-0.1407487 0.562507,0.3968744 0.24809,-0.3516272 z"
       id="path54748"
       style="font-size:2.81604px;line-height:1.25;font-family:Righteous;-inkscape-font-specification:Righteous;letter-spacing:0px;word-spacing:0px;stroke-width:0.0192061" />
    <path
       d="m -2.7701955,4.4289132 c -0.339682,-0.5883529 -0.668685,-0.7142593 -0.705931,-1.0237816 l -0.0439,-0.364565 0.0648,-0.00784 a 0.06119933,0.06527066 82.478443 0 0 0.05752,-0.068624 l -0.01463,-0.1215282 a 0.06119933,0.06527066 82.478443 0 0 -0.07211,-0.052882 l -0.647943,0.078874 a 0.06119933,0.06527066 82.478443 0 0 -0.05752,0.068623 l 0.01463,0.1215276 a 0.06119933,0.06527066 82.478443 0 0 0.07211,0.052868 l 0.0648,-0.00784 0.0439,0.3645655 c 0.03724,0.3095211 -0.252393,0.5107482 -0.442705,1.1636304 -0.06061,0.2077441 -0.242526,0.522741 0.891977,0.3846141 1.134509,-0.1381369 0.883112,-0.4003684 0.774989,-0.5875761 z m -0.183928,0.2382993 c -0.0879,0.036588 -0.26543,0.087677 -0.617379,0.1305316 -0.351954,0.042809 -0.536471,0.035848 -0.63051,0.021408 -0.03335,-0.00507 -0.05013,-0.038662 -0.04261,-0.072243 0.01871,-0.084885 0.05556,-0.2321638 0.137201,-0.4015352 0.199493,-0.4138038 0.50785,-5.508e-4 0.719977,-0.02637 0.212123,-0.025879 0.131114,-0.2084453 0.229094,-0.089171 a 1.8791869,2.0042011 82.478443 0 1 0.228485,0.3570103 c 0.01528,0.03081 0.007,0.067326 -0.02425,0.08039 z"
       id="path29514-9"
       style="fill:#000000;stroke-width:0.126404" />
    <path
       d="m -1.7621655,4.5249637 -0.23441,0.5551294 -0.792886,-0.334806 0.06701,-0.1586872 0.634198,0.2677979 0.167403,-0.3964423 z"
       id="path54779"
       style="font-size:2.81604px;line-height:1.25;font-family:Righteous;-inkscape-font-specification:Righteous;letter-spacing:0px;word-spacing:0px;stroke-width:0.0192061" />
  </g>
</svg>
