<?xml version="1.0" encoding="UTF-8" standalone="no"?>
<!-- Uploaded to: SVG Repo, www.svgrepo.com, Generator: SVG Repo Mixer Tools -->

<svg
   fill="#000000"
   width="315.50885"
   height="225.56003"
   viewBox="0 0 7.8877213 5.6390007"
   version="1.1"
   id="svg4"
   xmlns="http://www.w3.org/2000/svg"
   xmlns:svg="http://www.w3.org/2000/svg">
  <defs
     id="defs8" />
  <text
     xml:space="preserve"
     style="font-size:2.81604px;line-height:1.25;font-family:ChunkFive;-inkscape-font-specification:ChunkFive;letter-spacing:0px;word-spacing:0px;stroke-width:0.0440006;fill:#000000"
     x="-0.070400998"
     y="3.0328186"
     id="text10208"><tspan
       style="stroke-width:0.0440006;fill:#000000"
       x="-0.070400998"
       y="3.0328186"
       id="tspan15902">LAZY </tspan></text>
  <text
     xml:space="preserve"
     style="font-size:1.6px;line-height:1.25;font-family:Chunk;-inkscape-font-specification:Chunk;letter-spacing:0px;word-spacing:0px;stroke-width:0.025"
     x="16.49535"
     y="1.4670352"
     id="text76230"><tspan
       id="tspan76228"
       style="stroke-width:0.025"
       x="16.49535"
       y="1.4670352" /></text>
  <text
     xml:space="preserve"
     style="font-style:normal;font-variant:normal;font-weight:normal;font-stretch:normal;font-size:1.6px;line-height:1.25;font-family:ChunkFive;-inkscape-font-specification:ChunkFive;letter-spacing:0px;word-spacing:0px;stroke-width:0.025"
     x="13.18133"
     y="0.51753426"
     id="text2229"><tspan
       id="tspan2227"
       style="font-style:normal;font-variant:normal;font-weight:normal;font-stretch:normal;font-family:ChunkFive;-inkscape-font-specification:ChunkFive;stroke-width:0.025"
       x="13.18133"
       y="0.51753426" /></text>
  <text
     xml:space="preserve"
     style="font-style:normal;font-variant:normal;font-weight:normal;font-stretch:normal;font-size:1.6px;line-height:1.25;font-family:ChunkFive;-inkscape-font-specification:ChunkFive;letter-spacing:0px;word-spacing:0px;stroke-width:0.025"
     x="16.678404"
     y="2.1812649"
     id="text3883"><tspan
       id="tspan3881"
       style="font-style:normal;font-variant:normal;font-weight:normal;font-stretch:normal;font-family:ChunkFive;-inkscape-font-specification:ChunkFive;stroke-width:0.025"
       x="16.678404"
       y="2.1812649" /></text>
  <path
     d="M 2.4468196,5.1575392 C 2.1870742,4.5297845 1.8773834,4.3618952 1.880975,4.0501608 l 0.00419,-0.3671745 0.065267,7.059e-4 A 0.06527066,0.06119933 0 0 0 2.016438,3.6231882 L 2.017808,3.5007901 A 0.06527066,0.06119933 0 0 0 1.95324,3.4389231 l -0.6526925,-0.00662 a 0.06527066,0.06119933 0 0 0 -0.066006,0.060503 l -0.00137,0.1223975 a 0.06527066,0.06119933 0 0 0 0.064568,0.061852 l 0.065267,7.059e-4 -0.00425,0.3671751 C 1.3551893,4.3566686 1.041679,4.518252 0.76754248,5.140605 0.68026668,5.338628 0.45867674,5.6271016 1.6014989,5.6386687 2.7443282,5.6502268 2.5294206,5.357344 2.4467322,5.1575938 Z m -0.213539,0.2121729 c -0.091929,0.024768 -0.274623,0.052178 -0.629153,0.048594 -0.3545299,-0.00363 -0.5365484,-0.034684 -0.62788805,-0.06131 -0.0324,-0.00939 -0.0446367,-0.044892 -0.0327935,-0.0772 0.0296579,-0.081705 0.0854687,-0.2228926 0.18858095,-0.3801197 0.251943,-0.3841298 0.5035519,0.065931 0.7172345,0.068101 0.2136846,0.00211 0.1572709,-0.1894891 0.238795,-0.058416 a 2.0042011,1.8791869 0 0 1 0.1797867,0.383847 c 0.011125,0.032546 -0.00194,0.067659 -0.034561,0.076525 z"
     id="path29514"
     style="fill:#000000;stroke-width:0.126404" />
  <ellipse
     style="fill:#000000;stroke-width:0.0726232"
     id="path31152"
     cx="1.3375036"
     cy="1.1413141"
     rx="0.19339316"
     ry="0.18133005" />
  <ellipse
     style="fill:#000000;stroke-width:0.0827121"
     id="path31154"
     cx="1.6988899"
     cy="1.7053734"
     rx="0.114904"
     ry="0.10773674" />
  <ellipse
     style="fill:#000000;stroke-width:0.114263"
     id="path31156"
     cx="1.8735316"
     cy="0.35855284"
     rx="0.38240579"
     ry="0.35855284" />
  <text
     xml:space="preserve"
     style="font-size:2.24718px;line-height:1.25;font-family:ChunkFive;-inkscape-font-specification:ChunkFive;letter-spacing:0px;word-spacing:0px;stroke-width:0.0351122;fill:#000000"
     x="3.1461747"
     y="4.8356824"
     id="text25134"><tspan
       id="tspan25132"
       style="stroke-width:0.0351122;fill:#000000"
       x="3.1461747"
       y="4.8356824">LAB</tspan></text>
</svg>
