<?xml version="1.0" encoding="UTF-8" standalone="no"?>
<!-- Uploaded to: SVG Repo, www.svgrepo.com, Generator: SVG Repo Mixer Tools -->

<svg
   fill="#000000"
   width="291.51428"
   height="157.94278"
   viewBox="0 0 7.2878571 3.9485695"
   version="1.1"
   id="svg4"
   sodipodi:docname="lazy-lab-logo-7.svg"
   inkscape:version="1.1.2 (0a00cf5339, 2022-02-04)"
   xmlns:inkscape="http://www.inkscape.org/namespaces/inkscape"
   xmlns:sodipodi="http://sodipodi.sourceforge.net/DTD/sodipodi-0.dtd"
   xmlns="http://www.w3.org/2000/svg"
   xmlns:svg="http://www.w3.org/2000/svg">
  <sodipodi:namedview
     id="namedview54999"
     pagecolor="#505050"
     bordercolor="#ffffff"
     borderopacity="1"
     inkscape:pageshadow="0"
     inkscape:pageopacity="0"
     inkscape:pagecheckerboard="1"
     showgrid="false"
     inkscape:zoom="2.2539888"
     inkscape:cx="91.837191"
     inkscape:cy="115.35106"
     inkscape:window-width="3840"
     inkscape:window-height="1131"
     inkscape:window-x="0"
     inkscape:window-y="0"
     inkscape:window-maximized="1"
     inkscape:current-layer="svg4" />
  <defs
     id="defs8" />
  <text
     xml:space="preserve"
     style="font-size:1.94466px;line-height:1.25;font-family:ChunkFive;-inkscape-font-specification:ChunkFive;letter-spacing:0px;word-spacing:0px;fill:#000000;stroke-width:0.0303853"
     x="1.7781451"
     y="2.2358034"
     id="text10208"><tspan
       style="fill:#000000;stroke-width:0.0303853"
       x="1.7781451"
       y="2.2358034"
       id="tspan15902">LAZY </tspan></text>
  <text
     xml:space="preserve"
     style="font-size:1.6px;line-height:1.25;font-family:Chunk;-inkscape-font-specification:Chunk;letter-spacing:0px;word-spacing:0px;stroke-width:0.025"
     x="17.101414"
     y="0.7668947"
     id="text76230"><tspan
       id="tspan76228"
       style="stroke-width:0.025"
       x="17.101414"
       y="0.7668947" /></text>
  <text
     xml:space="preserve"
     style="font-style:normal;font-variant:normal;font-weight:normal;font-stretch:normal;font-size:1.6px;line-height:1.25;font-family:ChunkFive;-inkscape-font-specification:ChunkFive;letter-spacing:0px;word-spacing:0px;stroke-width:0.025"
     x="13.787395"
     y="-0.18260624"
     id="text2229"><tspan
       id="tspan2227"
       style="font-style:normal;font-variant:normal;font-weight:normal;font-stretch:normal;font-family:ChunkFive;-inkscape-font-specification:ChunkFive;stroke-width:0.025"
       x="13.787395"
       y="-0.18260624" /></text>
  <text
     xml:space="preserve"
     style="font-style:normal;font-variant:normal;font-weight:normal;font-stretch:normal;font-size:1.6px;line-height:1.25;font-family:ChunkFive;-inkscape-font-specification:ChunkFive;letter-spacing:0px;word-spacing:0px;stroke-width:0.025"
     x="17.284468"
     y="1.4811244"
     id="text3883"><tspan
       id="tspan3881"
       style="font-style:normal;font-variant:normal;font-weight:normal;font-stretch:normal;font-family:ChunkFive;-inkscape-font-specification:ChunkFive;stroke-width:0.025"
       x="17.284468"
       y="1.4811244" /></text>
  <text
     xml:space="preserve"
     style="font-size:1.67185px;line-height:1.25;font-family:ChunkFive;-inkscape-font-specification:ChunkFive;letter-spacing:0px;word-spacing:0px;fill:#000000;stroke-width:0.0261227"
     x="3.7461481"
     y="3.5917642"
     id="text25134"><tspan
       id="tspan25132"
       style="fill:#000000;stroke-width:0.0261227"
       x="3.7461481"
       y="3.5917642">LAB</tspan></text>
  <g
     id="g55419"
     transform="translate(2.3764041,-0.51151004)">
    <ellipse
       style="fill:#000000;stroke-width:0.0726232"
       id="path31152-8"
       cx="-2.1168561"
       cy="1.1140187"
       rx="0.1934"
       ry="0.18133005" />
    <ellipse
       style="fill:#000000;stroke-width:0.0827121"
       id="path31154-4"
       cx="-1.7756295"
       cy="1.408855"
       rx="0.114904"
       ry="0.10773674" />
    <ellipse
       style="fill:#000000;stroke-width:0.114263"
       id="path31156-8"
       cx="-1.5391507"
       cy="0.87006289"
       rx="0.38240579"
       ry="0.35855284" />
  </g>
  <g
     id="g55414"
     transform="translate(4.4856958,-1.5528605)">
    <path
       d="m -2.4997145,5.0090541 -0.347394,0.4923758 -0.703255,-0.4961796 0.0993,-0.1407487 0.562507,0.3968744 0.24809,-0.3516272 z"
       id="path54748"
       style="font-size:2.81604px;line-height:1.25;font-family:Righteous;-inkscape-font-specification:Righteous;letter-spacing:0px;word-spacing:0px;stroke-width:0.0192061" />
    <path
       d="m -2.7701955,4.4289132 c -0.339682,-0.5883529 -0.668685,-0.7142593 -0.705931,-1.0237816 l -0.0439,-0.364565 0.0648,-0.00784 a 0.06119933,0.06527066 82.478443 0 0 0.05752,-0.068624 l -0.01463,-0.1215282 a 0.06119933,0.06527066 82.478443 0 0 -0.07211,-0.052882 l -0.647943,0.078874 a 0.06119933,0.06527066 82.478443 0 0 -0.05752,0.068623 l 0.01463,0.1215276 a 0.06119933,0.06527066 82.478443 0 0 0.07211,0.052868 l 0.0648,-0.00784 0.0439,0.3645655 c 0.03724,0.3095211 -0.252393,0.5107482 -0.442705,1.1636304 -0.06061,0.2077441 -0.242526,0.522741 0.891977,0.3846141 1.134509,-0.1381369 0.883112,-0.4003684 0.774989,-0.5875761 z m -0.183928,0.2382993 c -0.0879,0.036588 -0.26543,0.087677 -0.617379,0.1305316 -0.351954,0.042809 -0.536471,0.035848 -0.63051,0.021408 -0.03335,-0.00507 -0.05013,-0.038662 -0.04261,-0.072243 0.01871,-0.084885 0.05556,-0.2321638 0.137201,-0.4015352 0.199493,-0.4138038 0.50785,-5.508e-4 0.719977,-0.02637 0.212123,-0.025879 0.131114,-0.2084453 0.229094,-0.089171 a 1.8791869,2.0042011 82.478443 0 1 0.228485,0.3570103 c 0.01528,0.03081 0.007,0.067326 -0.02425,0.08039 z"
       id="path29514-9"
       style="fill:#000000;stroke-width:0.126404" />
    <path
       d="m -1.7621655,4.5249637 -0.23441,0.5551294 -0.792886,-0.334806 0.06701,-0.1586872 0.634198,0.2677979 0.167403,-0.3964423 z"
       id="path54779"
       style="font-size:2.81604px;line-height:1.25;font-family:Righteous;-inkscape-font-specification:Righteous;letter-spacing:0px;word-spacing:0px;stroke-width:0.0192061" />
  </g>
</svg>
