<?xml version="1.0" encoding="UTF-8" standalone="no"?>
<!-- Uploaded to: SVG Repo, www.svgrepo.com, Generator: SVG Repo Mixer Tools -->

<svg
   fill="#000000"
   width="315.50885"
   height="225.56003"
   viewBox="0 0 7.8877213 5.6390007"
   version="1.1"
   id="svg4"
   xmlns="http://www.w3.org/2000/svg"
   xmlns:svg="http://www.w3.org/2000/svg">
  <defs
     id="defs8" />
  <path
     d="m -17.123908,0.48388638 -0.347394,0.49237587 -0.703255,-0.49617963 0.0993,-0.14074868 0.562507,0.39687437 0.24809,-0.35162723 z"
     id="path54748"
     style="font-size:2.81604px;line-height:1.25;font-family:Righteous;-inkscape-font-specification:Righteous;letter-spacing:0px;word-spacing:0px;stroke-width:0.0192061" />
  <path
     d="M -12.47917,1.5816239 V 1.1869933 q 0,-0.081126 -0.03163,-0.1526272 -0.03025,-0.0728759 -0.08388,-0.12650174 -0.05363,-0.0536258 -0.126502,-0.0838762 -0.0715,-0.0316255 -0.152627,-0.0316255 -0.08113,0 -0.154002,0.0316255 -0.0715,0.0302504 -0.125127,0.0838762 -0.05363,0.0536258 -0.08525,0.12650174 -0.03025,0.071501 -0.03025,0.1526272 v 0.3946306 z m 0.394631,0.7878862 H -12.47917 V 1.9748795 h -0.789261 v 0.3946306 h -0.393256 V 1.1869933 q 0,-0.1636273 0.06188,-0.30662934 0.06188,-0.14437705 0.167753,-0.25162854 0.107251,-0.1072516 0.250253,-0.1691274 0.144377,-0.061876 0.308005,-0.061876 0.163627,0 0.306629,0.061876 0.144377,0.061876 0.251629,0.1691274 0.107251,0.10725149 0.169127,0.25162854 0.06188,0.14300204 0.06188,0.30662934 z"
     id="path54750"
     style="font-size:2.81604px;line-height:1.25;font-family:Righteous;-inkscape-font-specification:Righteous;letter-spacing:0px;word-spacing:0px;stroke-width:0.0440006" />
  <path
     d="m -2.1129474,0.64019722 h -1.5262717 l 0.841512,-1.57714743 h -0.841512 V -1.3315808 h 1.5262717 l -0.8387619,1.57714741 h 0.8387619 z"
     id="path54752"
     style="font-size:2.81604px;line-height:1.25;font-family:Righteous;-inkscape-font-specification:Righteous;letter-spacing:0px;word-spacing:0px;stroke-width:0.0440006" />
  <path
     d="M -0.99780643,0.64019722 H -1.391062 V 0.02281344 q -0.1306269,-0.03300047 -0.2406284,-0.10587651 -0.1086266,-0.07287603 -0.1870027,-0.17325246 -0.078376,-0.10175145 -0.1223767,-0.22412819 -0.042626,-0.12375176 -0.042626,-0.25987869 V -1.3315808 h 0.3946306 v 0.59125839 q 0,0.0811262 0.03025,0.15400219 0.031625,0.071501 0.085251,0.12512678 0.053626,0.0536258 0.1251268,0.0852512 0.072876,0.0302504 0.1540022,0.0302504 0.081126,0 0.1526271,-0.0302504 0.0728761,-0.0316254 0.12650184,-0.0852512 0.0536258,-0.0536258 0.0838762,-0.12512678 0.0316255,-0.072876 0.0316255,-0.15400219 V -1.3315808 h 0.39325559 v 0.59125839 q 0,0.13612693 -0.0440006,0.25987869 -0.0426256,0.12237674 -0.12100172,0.22412819 -0.0783761,0.10037643 -0.18700266,0.17325246 -0.10862654,0.07287604 -0.2392534,0.10587651 z"
     id="path54754"
     style="font-size:2.81604px;line-height:1.25;font-family:Righteous;-inkscape-font-specification:Righteous;letter-spacing:0px;word-spacing:0px;stroke-width:0.0440006" />
  <text
     xml:space="preserve"
     style="font-size:1.6px;line-height:1.25;font-family:Chunk;-inkscape-font-specification:Chunk;letter-spacing:0px;word-spacing:0px;stroke-width:0.025"
     x="16.49535"
     y="1.4670352"
     id="text76230"><tspan
       id="tspan76228"
       style="stroke-width:0.025"
       x="16.49535"
       y="1.4670352" /></text>
  <text
     xml:space="preserve"
     style="font-style:normal;font-variant:normal;font-weight:normal;font-stretch:normal;font-size:1.6px;line-height:1.25;font-family:ChunkFive;-inkscape-font-specification:ChunkFive;letter-spacing:0px;word-spacing:0px;stroke-width:0.025"
     x="13.18133"
     y="0.51753426"
     id="text2229"><tspan
       id="tspan2227"
       style="font-style:normal;font-variant:normal;font-weight:normal;font-stretch:normal;font-family:ChunkFive;-inkscape-font-specification:ChunkFive;stroke-width:0.025"
       x="13.18133"
       y="0.51753426" /></text>
  <text
     xml:space="preserve"
     style="font-style:normal;font-variant:normal;font-weight:normal;font-stretch:normal;font-size:1.6px;line-height:1.25;font-family:ChunkFive;-inkscape-font-specification:ChunkFive;letter-spacing:0px;word-spacing:0px;stroke-width:0.025"
     x="16.678404"
     y="2.1812649"
     id="text3883"><tspan
       id="tspan3881"
       style="font-style:normal;font-variant:normal;font-weight:normal;font-stretch:normal;font-family:ChunkFive;-inkscape-font-specification:ChunkFive;stroke-width:0.025"
       x="16.678404"
       y="2.1812649" /></text>
  <path
     d="m -17.394389,-0.09625454 c -0.339682,-0.58835289 -0.668685,-0.71425931 -0.705931,-1.02378156 l -0.0439,-0.364565 0.0648,-0.00784 a 0.06119933,0.06527066 82.478443 0 0 0.05752,-0.068624 l -0.01463,-0.1215282 a 0.06119933,0.06527066 82.478443 0 0 -0.07211,-0.052882 l -0.647943,0.078874 a 0.06119933,0.06527066 82.478443 0 0 -0.05752,0.068623 l 0.01463,0.1215276 a 0.06119933,0.06527066 82.478443 0 0 0.07211,0.052868 l 0.0648,-0.00784 0.0439,0.3645655 c 0.03724,0.30952108 -0.252393,0.51074819 -0.442705,1.16363045 -0.06061,0.20774403 -0.242526,0.52274094 0.891977,0.38461402 1.134509,-0.13813688 0.883112,-0.40036834 0.774989,-0.58757603 z m -0.183928,0.23829938 c -0.0879,0.0365884 -0.26543,0.087677 -0.617379,0.13053151 -0.351954,0.0428089 -0.536471,0.0358481 -0.63051,0.0214076 -0.03335,-0.005068 -0.05013,-0.0386624 -0.04261,-0.0722436 0.01871,-0.0848845 0.05556,-0.23216272 0.137201,-0.40153413 0.199493,-0.41380377 0.50785,-5.5085e-4 0.719977,-0.0263703 0.212123,-0.0258794 0.131114,-0.20844532 0.229094,-0.0891714 a 1.8791869,2.0042011 82.478443 0 1 0.228485,0.35701028 c 0.01528,0.03081037 0.007,0.06732555 -0.02425,0.08039043 z"
     id="path29514"
     style="fill:#000000;stroke-width:0.126404" />
  <ellipse
     style="fill:#000000;stroke-width:0.0726232"
     id="path31152"
     cx="-18.529226"
     cy="-2.2986851"
     rx="0.1934"
     ry="0.18133005" />
  <ellipse
     style="fill:#000000;stroke-width:0.0827121"
     id="path31154"
     cx="-18.188"
     cy="-2.0038488"
     rx="0.114904"
     ry="0.10773674" />
  <ellipse
     style="fill:#000000;stroke-width:0.114263"
     id="path31156"
     cx="-17.951521"
     cy="-2.5426409"
     rx="0.38240579"
     ry="0.35855284" />
  <text
     xml:space="preserve"
     style="font-size:2.24718px;line-height:1.25;font-family:ChunkFive;-inkscape-font-specification:ChunkFive;letter-spacing:0px;word-spacing:0px;fill:#000000;stroke-width:0.0351122"
     x="3.0904336"
     y="4.2324944"
     id="text25134"><tspan
       id="tspan25132"
       style="font-style:normal;font-variant:normal;font-weight:normal;font-stretch:normal;font-family:Righteous;-inkscape-font-specification:Righteous;fill:#000000;stroke-width:0.0351122"
       x="3.0904336"
       y="4.2324944">LAB</tspan></text>
  <path
     d="m -16.386359,-2.0401966e-4 -0.23441,0.55512940966 -0.792886,-0.33480602 0.06701,-0.15868713 0.634198,0.2677979 0.167403,-0.3964423 z"
     id="path54779"
     style="font-size:2.81604px;line-height:1.25;font-family:Righteous;-inkscape-font-specification:Righteous;letter-spacing:0px;word-spacing:0px;stroke-width:0.0192061" />
</svg>
