<?xml version="1.0" encoding="UTF-8" standalone="no"?>
<!-- Uploaded to: SVG Repo, www.svgrepo.com, Generator: SVG Repo Mixer Tools -->

<svg
   fill="#000000"
   width="117.03228"
   height="183.72528"
   viewBox="0 0 2.925807 4.593132"
   version="1.1"
   id="svg4"
   xmlns="http://www.w3.org/2000/svg"
   xmlns:svg="http://www.w3.org/2000/svg">
  <defs
     id="defs8" />
  <text
     xml:space="preserve"
     style="font-size:1.6px;line-height:1.25;font-family:Chunk;-inkscape-font-specification:Chunk;letter-spacing:0px;word-spacing:0px;stroke-width:0.025"
     x="15.155168"
     y="2.955127"
     id="text76230"><tspan
       id="tspan76228"
       style="stroke-width:0.025"
       x="15.155168"
       y="2.955127" /></text>
  <text
     xml:space="preserve"
     style="font-style:normal;font-variant:normal;font-weight:normal;font-stretch:normal;font-size:1.6px;line-height:1.25;font-family:ChunkFive;-inkscape-font-specification:ChunkFive;letter-spacing:0px;word-spacing:0px;stroke-width:0.025"
     x="11.841147"
     y="2.005626"
     id="text2229"><tspan
       id="tspan2227"
       style="font-style:normal;font-variant:normal;font-weight:normal;font-stretch:normal;font-family:ChunkFive;-inkscape-font-specification:ChunkFive;stroke-width:0.025"
       x="11.841147"
       y="2.005626" /></text>
  <text
     xml:space="preserve"
     style="font-style:normal;font-variant:normal;font-weight:normal;font-stretch:normal;font-size:1.6px;line-height:1.25;font-family:ChunkFive;-inkscape-font-specification:ChunkFive;letter-spacing:0px;word-spacing:0px;stroke-width:0.025"
     x="15.338222"
     y="3.6693566"
     id="text3883"><tspan
       id="tspan3881"
       style="font-style:normal;font-variant:normal;font-weight:normal;font-stretch:normal;font-family:ChunkFive;-inkscape-font-specification:ChunkFive;stroke-width:0.025"
       x="15.338222"
       y="3.6693566" /></text>
  <g
     id="g31485"
     style="fill:#000000"
     transform="matrix(1,0,0,0.93762392,8.1657552,-35.714582)">
    <g
       aria-label="LA"
       id="text14967"
       style="font-size:0.577149px;line-height:1.25;font-family:ChunkFive;-inkscape-font-specification:ChunkFive;letter-spacing:0px;word-spacing:0px;fill:#000000;stroke-width:0.00901792">
      <path
         d="m -7.4952633,42.000511 c 0.060763,-0.0013 0.1214265,-0.0023 0.1820034,-0.0032 -0.00305,0.02757 -0.00674,0.05509 -0.011064,0.08257 -0.010247,-1.21e-4 -0.020492,-2.47e-4 -0.030735,-3.78e-4 -0.014642,0.08941 -0.036667,0.178265 -0.066074,0.266558 0.02719,0.0029 0.054434,0.0055 0.081726,0.0079 0.00757,-0.02657 0.014622,-0.05317 0.021142,-0.07981 0.03433,0.0023 0.068735,0.0042 0.1032034,0.0059 -0.011113,0.05602 -0.0239,0.111973 -0.03836,0.167845 -0.1241402,-0.01018 -0.2475643,-0.02561 -0.3696957,-0.04761 0.013078,-0.02486 0.025211,-0.04982 0.036398,-0.07487 0.011489,0.0017 0.022991,0.0033 0.034504,0.0049 0.035033,-0.08328 0.060582,-0.16746 0.076646,-0.252526 -0.010614,-1.75e-4 -0.021226,-3.55e-4 -0.031836,-5.41e-4 0.00498,-0.02546 0.00903,-0.05102 0.012142,-0.07667 z"
         id="path29580"
         style="fill:#000000" />
      <path
         d="m -6.696591,42.462749 c -0.089505,0.0018 -0.1790835,0.002 -0.2685225,-8.6e-5 0.0031,-0.02929 0.00609,-0.05858 0.00896,-0.08786 0.020352,3.76e-4 0.040715,6.58e-4 0.061089,8.52e-4 -0.00342,-0.01529 -0.00676,-0.03057 -0.010043,-0.04585 -0.043123,-4.31e-4 -0.086192,-0.0012 -0.1291888,-0.0024 -0.00634,0.01498 -0.012818,0.02993 -0.019444,0.04485 0.016674,5.67e-4 0.033358,0.0011 0.050051,0.0015 -0.00347,0.02918 -0.00711,0.05837 -0.010921,0.08756 -0.07088,-0.0023 -0.1416485,-0.006 -0.212199,-0.01132 0.00689,-0.02831 0.01339,-0.05665 0.019494,-0.08499 0.014469,8.86e-4 0.028949,0.0017 0.04344,0.0025 0.047256,-0.09411 0.087194,-0.190472 0.1226141,-0.287316 -0.00795,-3.5e-5 -0.01589,-7.2e-5 -0.023834,-1.1e-4 0.00288,-0.02845 0.0055,-0.05691 0.00784,-0.08537 0.073344,-4.62e-4 0.1465844,-6.96e-4 0.2197436,-7.51e-4 0.027808,0.127872 0.057081,0.254138 0.094426,0.381602 0.015038,-1.6e-4 0.030078,-3.62e-4 0.045119,-6.03e-4 3.493e-4,0.02928 8.064e-4,0.05855 0.00137,0.08782 z m -0.3053904,-0.214836 c 0.026662,4.7e-4 0.05335,8.28e-4 0.080061,0.0011 -0.0097,-0.04855 -0.018903,-0.09673 -0.028071,-0.145083 -0.016388,0.04812 -0.033625,0.0962 -0.05199,0.144001 z"
         id="path29582"
         style="fill:#000000" />
    </g>
    <g
       aria-label="ZY"
       transform="matrix(0.95060574,0,0,1.0519608,-0.01461194,0.02335465)"
       id="text16291"
       style="font-size:0.618233px;line-height:1.25;font-family:ChunkFive;-inkscape-font-specification:ChunkFive;letter-spacing:0px;word-spacing:0px;fill:#000000;stroke-width:0.00965991">
      <path
         d="m -6.9640358,40.076061 c -0.00259,-0.05663 -0.00562,-0.113253 -0.00907,-0.169874 0.1342421,-7.1e-5 0.2694444,-5.52e-4 0.4057628,-5.11e-4 0.00194,0.02898 0.00394,0.05797 0.00602,0.08698 -0.080054,0.109091 -0.1257939,0.175096 -0.2101308,0.282753 0.038916,6.27e-4 0.077677,0.0012 0.1162563,0.0015 -0.00136,-0.02801 -0.00276,-0.056 -0.00421,-0.08397 0.036536,2.24e-4 0.072875,2.92e-4 0.1089966,9.8e-5 0.00395,0.05679 0.00819,0.113625 0.01272,0.170499 -0.1392633,0.0017 -0.2800667,-0.0033 -0.4208423,-0.0058 -5.72e-4,-0.02799 -0.00125,-0.05598 -0.00203,-0.08397 0.081815,-0.101895 0.1395794,-0.178248 0.2143744,-0.281868 -0.033707,1.24e-4 -0.083279,2.94e-4 -0.116986,4.18e-4 0.00202,0.02809 0.00392,0.0562 0.00569,0.08432 -0.035387,-2.1e-4 -0.070904,-3.97e-4 -0.1065456,-5.12e-4 z"
         id="path30756"
         style="fill:#000000" />
      <path
         d="m -6.3144898,40.107654 c 0.00108,-0.0085 0.00586,-0.0228 0.01468,-0.04244 0.00164,-0.0043 0.00329,-0.0086 0.00496,-0.01283 0.01035,-0.0216 0.02121,-0.04312 0.032726,-0.06445 -0.01114,1.17e-4 -0.022287,2.25e-4 -0.033441,3.24e-4 1.501e-4,-0.02713 8.733e-4,-0.0543 0.00217,-0.08153 0.056537,4.71e-4 0.1132791,0.0011 0.1702372,0.0021 -0.00413,0.0259 -0.00722,0.05169 -0.00927,0.07737 -0.01088,1.88e-4 -0.021768,3.66e-4 -0.032663,5.34e-4 -0.041152,0.06625 -0.073641,0.136141 -0.1027698,0.206087 0.00255,0.02422 0.00561,0.0484 0.00917,0.07254 0.011198,-0.001 0.02237,-0.0021 0.033516,-0.0033 0.00426,0.02672 0.00925,0.05336 0.014971,0.07994 -0.06576,0.0089 -0.1321718,0.01446 -0.1990583,0.01776 -0.00341,-0.02807 -0.00654,-0.05615 -0.0094,-0.08425 0.011623,-4.37e-4 0.023224,-9.3e-4 0.034801,-0.0015 -0.0028,-0.02536 -0.00533,-0.05073 -0.00757,-0.07612 -0.043298,-0.06554 -0.089129,-0.140819 -0.1308113,-0.208492 -0.01002,1.3e-5 -0.020045,2.3e-5 -0.030076,3e-5 -0.00156,-0.0279 -0.00304,-0.0558 -0.00444,-0.08369 0.071099,3.5e-5 0.1425017,2.19e-4 0.2142314,6.84e-4 -6.406e-4,0.02746 -8.204e-4,0.05488 -5.395e-4,0.08227 -0.010565,7.3e-5 -0.021136,1.4e-4 -0.031714,2.01e-4 0.01221,0.02266 0.024556,0.04538 0.036956,0.0677 0.00441,0.0114 0.00758,0.01907 0.00934,0.02283 0.00713,0.01604 0.011036,0.02538 0.011615,0.02838 -9e-7,0 0.00238,-8e-5 0.00238,-8e-5 z"
         id="path30758"
         style="fill:#000000" />
    </g>
    <path
       d="m -5.3544905,42.167169 c -0.415833,-1.071846 -0.911625,-1.358505 -0.905875,-1.890769 l 0.0067,-0.626924 0.104487,0.0012 a 0.10449345,0.10449345 0 0 0 0.10567,-0.103306 l 0.0022,-0.208986 a 0.10449345,0.10449345 0 0 0 -0.103369,-0.105634 l -1.044912,-0.01131 a 0.10449345,0.10449345 0 0 0 -0.10567,0.103305 l -0.0022,0.208985 a 0.10449345,0.10449345 0 0 0 0.103369,0.105608 l 0.104488,0.0012 -0.0068,0.626925 c -0.0057,0.53226 -0.507606,0.808152 -0.946478,1.870775 -0.139722,0.33811 -0.494471,0.830658 1.335102,0.850408 1.829577,0.01974 1.485526,-0.480336 1.353148,-0.821395 z m -0.34186,0.36227 c -0.147172,0.04229 -0.439651,0.08909 -1.007227,0.08297 -0.567576,-0.0062 -0.858974,-0.05922 -1.005202,-0.104682 -0.05187,-0.01603 -0.07146,-0.07665 -0.0525,-0.131814 0.04748,-0.139505 0.136829,-0.380573 0.301904,-0.649027 0.403342,-0.655874 0.806149,0.112572 1.148239,0.116277 0.342093,0.0036 0.251779,-0.323539 0.382293,-0.09974 a 3.2085764,3.2085764 0 0 1 0.287825,0.655391 c 0.01781,0.05557 -0.0031,0.115523 -0.05533,0.130661 z"
       id="path29514"
       style="fill:#000000;stroke-width:0.208987" />
    <circle
       style="opacity:1;fill:#000000;stroke-width:0.075"
       id="path31152"
       cx="-7.0298567"
       cy="38.690685"
       r="0.19339316" />
    <circle
       style="opacity:1;fill:#000000;stroke-width:0.075"
       id="path31154"
       cx="-6.5005174"
       cy="39.027153"
       r="0.10088883" />
    <circle
       style="opacity:1;fill:#000000;stroke-width:0.075"
       id="path31156"
       cx="-6.4005623"
       cy="38.333569"
       r="0.24304895" />
    <circle
       style="opacity:1;fill:#000000;stroke-width:0.046891"
       id="circle31310"
       cx="-6.4919925"
       cy="38.227535"
       r="0.063077047" />
  </g>
</svg>
