<?xml version="1.0" encoding="UTF-8" standalone="no"?>
<!-- Uploaded to: SVG Repo, www.svgrepo.com, Generator: SVG Repo Mixer Tools -->

<svg
   fill="#000000"
   width="315.50885"
   height="225.56003"
   viewBox="0 0 7.8877213 5.6390007"
   version="1.1"
   id="svg4"
   sodipodi:docname="lazy-lab-logo-4.svg"
   inkscape:version="1.2.2 (b0a8486541, 2022-12-01)"
   xmlns:inkscape="http://www.inkscape.org/namespaces/inkscape"
   xmlns:sodipodi="http://sodipodi.sourceforge.net/DTD/sodipodi-0.dtd"
   xmlns="http://www.w3.org/2000/svg"
   xmlns:svg="http://www.w3.org/2000/svg">
  <sodipodi:namedview
     id="namedview2810"
     pagecolor="#505050"
     bordercolor="#eeeeee"
     borderopacity="1"
     inkscape:showpageshadow="0"
     inkscape:pageopacity="0"
     inkscape:pagecheckerboard="0"
     inkscape:deskcolor="#505050"
     showgrid="false"
     inkscape:zoom="3.9650235"
     inkscape:cx="157.75443"
     inkscape:cy="112.73578"
     inkscape:window-width="3840"
     inkscape:window-height="1131"
     inkscape:window-x="0"
     inkscape:window-y="0"
     inkscape:window-maximized="1"
     inkscape:current-layer="svg4" />
  <defs
     id="defs8" />
  <g
     aria-label="LAZY "
     id="text10208"
     style="font-size:2.81604px;line-height:1.25;font-family:ChunkFive;-inkscape-font-specification:ChunkFive;letter-spacing:0px;word-spacing:0px;stroke-width:0.0440006">
    <path
       d="M 0,1.4361239 H 0.15488221 V 2.6582852 H 0 V 3.0328186 H 1.5769824 V 2.3006481 H 1.1038877 V 2.6582852 H 0.74061853 V 1.4361239 H 0.88986866 V 1.0644066 H 0 Z"
       id="path3292" />
    <path
       d="M 3.9227455,2.6639173 H 3.7256227 L 3.2271837,1.0644066 H 2.1458243 V 1.4276757 H 2.2612819 L 1.8811165,2.6639173 H 1.6896258 V 3.0328186 H 2.5851265 V 2.6639173 H 2.3654754 l 0.059137,-0.1914907 h 0.5772883 l 0.059137,0.1914907 H 2.7935135 v 0.3689013 h 1.129232 z M 2.7118483,1.5262371 2.897707,2.1345018 H 2.5288057 Z"
       id="path3294" />
    <path
       d="M 4.5310101,1.8050251 4.528194,1.4389399 5.0604256,1.4361239 4.035387,2.6667334 V 3.0328186 H 5.8967895 V 2.3006481 H 5.3983504 l -0.00282,0.3604532 H 4.874567 L 5.9052376,1.4389399 5.8996055,1.0644066 H 4.0522833 v 0.7406185 z"
       id="path3296" />
    <path
       d="M 7.0147593,1.9514592 C 7.0034951,1.9035865 6.9443583,1.7768647 6.927462,1.7233599 L 6.7641317,1.4248597 H 6.9105658 V 1.0644066 H 5.9474801 v 0.3604531 h 0.137986 L 6.6317778,2.3344406 V 2.6667334 H 6.4712635 V 3.0328186 H 7.3723964 V 2.6667334 H 7.2146981 V 2.3400727 L 7.7356655,1.4248597 H 7.8877317 V 1.0644066 H 7.1302169 v 0.3604531 h 0.1548822 l -0.1548822,0.28442 c -0.030976,0.067585 -0.092929,0.1858587 -0.1041935,0.2421795 z"
       id="path3298" />
  </g>
  <text
     xml:space="preserve"
     style="font-size:1.6px;line-height:1.25;font-family:Chunk;-inkscape-font-specification:Chunk;letter-spacing:0px;word-spacing:0px;stroke-width:0.025"
     x="16.49535"
     y="1.4670352"
     id="text76230"><tspan
       id="tspan76228"
       style="stroke-width:0.025"
       x="16.49535"
       y="1.4670352" /></text>
  <text
     xml:space="preserve"
     style="font-style:normal;font-variant:normal;font-weight:normal;font-stretch:normal;font-size:1.6px;line-height:1.25;font-family:ChunkFive;-inkscape-font-specification:ChunkFive;letter-spacing:0px;word-spacing:0px;stroke-width:0.025"
     x="13.18133"
     y="0.51753426"
     id="text2229"><tspan
       id="tspan2227"
       style="font-style:normal;font-variant:normal;font-weight:normal;font-stretch:normal;font-family:ChunkFive;-inkscape-font-specification:ChunkFive;stroke-width:0.025"
       x="13.18133"
       y="0.51753426" /></text>
  <text
     xml:space="preserve"
     style="font-style:normal;font-variant:normal;font-weight:normal;font-stretch:normal;font-size:1.6px;line-height:1.25;font-family:ChunkFive;-inkscape-font-specification:ChunkFive;letter-spacing:0px;word-spacing:0px;stroke-width:0.025"
     x="16.678404"
     y="2.1812649"
     id="text3883"><tspan
       id="tspan3881"
       style="font-style:normal;font-variant:normal;font-weight:normal;font-stretch:normal;font-family:ChunkFive;-inkscape-font-specification:ChunkFive;stroke-width:0.025"
       x="16.678404"
       y="2.1812649" /></text>
  <path
     d="M 2.4468196,5.1575392 C 2.1870742,4.5297845 1.8773834,4.3618952 1.880975,4.0501608 l 0.00419,-0.3671745 0.065267,7.059e-4 A 0.06527066,0.06119933 0 0 0 2.016438,3.6231882 L 2.017808,3.5007901 A 0.06527066,0.06119933 0 0 0 1.95324,3.4389231 l -0.6526925,-0.00662 a 0.06527066,0.06119933 0 0 0 -0.066006,0.060503 l -0.00137,0.1223975 a 0.06527066,0.06119933 0 0 0 0.064568,0.061852 l 0.065267,7.059e-4 -0.00425,0.3671751 C 1.3551893,4.3566686 1.041679,4.518252 0.76754248,5.140605 0.68026668,5.338628 0.45867674,5.6271016 1.6014989,5.6386687 2.7443282,5.6502268 2.5294206,5.357344 2.4467322,5.1575938 Z m -0.213539,0.2121729 c -0.091929,0.024768 -0.274623,0.052178 -0.629153,0.048594 -0.3545299,-0.00363 -0.5365484,-0.034684 -0.62788805,-0.06131 -0.0324,-0.00939 -0.0446367,-0.044892 -0.0327935,-0.0772 0.0296579,-0.081705 0.0854687,-0.2228926 0.18858095,-0.3801197 0.251943,-0.3841298 0.5035519,0.065931 0.7172345,0.068101 0.2136846,0.00211 0.1572709,-0.1894891 0.238795,-0.058416 a 2.0042011,1.8791869 0 0 1 0.1797867,0.383847 c 0.011125,0.032546 -0.00194,0.067659 -0.034561,0.076525 z"
     id="path29514"
     style="fill:#000000;stroke-width:0.126404" />
  <ellipse
     style="fill:#000000;stroke-width:0.0726232"
     id="path31152"
     cx="1.3375036"
     cy="1.1413141"
     rx="0.19339316"
     ry="0.18133005" />
  <ellipse
     style="fill:#000000;stroke-width:0.0827121"
     id="path31154"
     cx="1.6988899"
     cy="1.7053734"
     rx="0.114904"
     ry="0.10773674" />
  <ellipse
     style="fill:#000000;stroke-width:0.114263"
     id="path31156"
     cx="1.8735316"
     cy="0.35855284"
     rx="0.38240579"
     ry="0.35855284" />
  <g
     aria-label="LAB"
     id="text25134"
     style="font-size:2.24718px;line-height:1.25;font-family:ChunkFive;-inkscape-font-specification:ChunkFive;letter-spacing:0px;word-spacing:0px;stroke-width:0.0351122">
    <path
       d="M 3.2023542,3.5615313 H 3.3259491 V 4.5368075 H 3.2023542 V 4.8356824 H 4.460775 V 4.2514156 H 4.0832487 V 4.5368075 H 3.7933625 V 3.5615313 H 3.912463 V 3.2649036 H 3.2023542 Z"
       id="path3301" />
    <path
       d="M 6.3326773,4.5413018 H 6.1753747 L 5.7776238,3.2649036 H 4.9147067 v 0.2898862 h 0.092134 L 4.7034718,4.5413018 H 4.5506636 V 4.8356824 H 5.2652668 V 4.5413018 H 5.0899867 l 0.047191,-0.1528082 h 0.4606719 l 0.047191,0.1528082 H 5.4315581 V 4.8356824 H 6.3326773 Z M 5.3663899,3.6334411 5.5147038,4.118832 H 5.2203232 Z"
       id="path3303" />
    <path
       d="m 7.2764926,4.8356824 c 0.4337058,0 0.611233,-0.1393252 0.611233,-0.4561775 0,-0.2179765 -0.1348308,-0.337077 -0.2966278,-0.3820206 0.1685385,-0.067415 0.2202237,-0.1595498 0.2202237,-0.3483129 0,-0.2449427 -0.1775272,-0.3842678 -0.5505591,-0.3842678 H 6.4225642 V 3.5547898 H 6.5529007 V 4.543549 H 6.4225642 V 4.8356824 Z M 7.1596393,3.5615313 c 0.085393,0 0.1483139,0.060674 0.1483139,0.1640442 0,0.1078646 -0.033708,0.1730328 -0.1528083,0.1730328 H 7.0180669 V 3.5615313 Z M 7.0180669,4.543549 V 4.1525397 h 0.1730329 c 0.1235949,0 0.1887631,0.083146 0.1887631,0.1977518 0,0.1213477 -0.08764,0.1932575 -0.1820216,0.1932575 z"
       id="path3305" />
  </g>
</svg>
